<svg class="hidden">
    <symbol xmlns="http://www.w3.org/2000/svg" id="Arrow" viewBox="0 0 24 24">
        <path d="M7 7h8.586L5.293 17.293l1.414 1.414L17 8.414V17h2V5H7v2z"></path>
    </symbol>
    <symbol xmlns="http://www.w3.org/2000/svg" id="React" viewBox="175.7 78 490.6 436.9">
        <g fill="#61dafb">
            <path
                d="m666.3 296.5c0-32.5-40.7-63.3-103.1-82.4 14.4-63.6 8-114.2-20.2-130.4-6.5-3.8-14.1-5.6-22.4-5.6v22.3c4.6 0 8.3.9 11.4 2.6 13.6 7.8 19.5 37.5 14.9 75.7-1.1 9.4-2.9 19.3-5.1 29.4-19.6-4.8-41-8.5-63.5-10.9-13.5-18.5-27.5-35.3-41.6-50 32.6-30.3 63.2-46.9 84-46.9v-22.3c-27.5 0-63.5 19.6-99.9 53.6-36.4-33.8-72.4-53.2-99.9-53.2v22.3c20.7 0 51.4 16.5 84 46.6-14 14.7-28 31.4-41.3 49.9-22.6 2.4-44 6.1-63.6 11-2.3-10-4-19.7-5.2-29-4.7-38.2 1.1-67.9 14.6-75.8 3-1.8 6.9-2.6 11.5-2.6v-22.3c-8.4 0-16 1.8-22.6 5.6-28.1 16.2-34.4 66.7-19.9 130.1-62.2 19.2-102.7 49.9-102.7 82.3 0 32.5 40.7 63.3 103.1 82.4-14.4 63.6-8 114.2 20.2 130.4 6.5 3.8 14.1 5.6 22.5 5.6 27.5 0 63.5-19.6 99.9-53.6 36.4 33.8 72.4 53.2 99.9 53.2 8.4 0 16-1.8 22.6-5.6 28.1-16.2 34.4-66.7 19.9-130.1 62-19.1 102.5-49.9 102.5-82.3zm-130.2-66.7c-3.7 12.9-8.3 26.2-13.5 39.5-4.1-8-8.4-16-13.1-24-4.6-8-9.5-15.8-14.4-23.4 14.2 2.1 27.9 4.7 41 7.9zm-45.8 106.5c-7.8 13.5-15.8 26.3-24.1 38.2-14.9 1.3-30 2-45.2 2-15.1 0-30.2-.7-45-1.9-8.3-11.9-16.4-24.6-24.2-38-7.6-13.1-14.5-26.4-20.8-39.8 6.2-13.4 13.2-26.8 20.7-39.9 7.8-13.5 15.8-26.3 24.1-38.2 14.9-1.3 30-2 45.2-2 15.1 0 30.2.7 45 1.9 8.3 11.9 16.4 24.6 24.2 38 7.6 13.1 14.5 26.4 20.8 39.8-6.3 13.4-13.2 26.8-20.7 39.9zm32.3-13c5.4 13.4 10 26.8 13.8 39.8-13.1 3.2-26.9 5.9-41.2 8 4.9-7.7 9.8-15.6 14.4-23.7 4.6-8 8.9-16.1 13-24.1zm-101.4 106.7c-9.3-9.6-18.6-20.3-27.8-32 9 .4 18.2.7 27.5.7 9.4 0 18.7-.2 27.8-.7-9 11.7-18.3 22.4-27.5 32zm-74.4-58.9c-14.2-2.1-27.9-4.7-41-7.9 3.7-12.9 8.3-26.2 13.5-39.5 4.1 8 8.4 16 13.1 24s9.5 15.8 14.4 23.4zm73.9-208.1c9.3 9.6 18.6 20.3 27.8 32-9-.4-18.2-.7-27.5-.7-9.4 0-18.7.2-27.8.7 9-11.7 18.3-22.4 27.5-32zm-74 58.9c-4.9 7.7-9.8 15.6-14.4 23.7-4.6 8-8.9 16-13 24-5.4-13.4-10-26.8-13.8-39.8 13.1-3.1 26.9-5.8 41.2-7.9zm-90.5 125.2c-35.4-15.1-58.3-34.9-58.3-50.6s22.9-35.6 58.3-50.6c8.6-3.7 18-7 27.7-10.1 5.7 19.6 13.2 40 22.5 60.9-9.2 20.8-16.6 41.1-22.2 60.6-9.9-3.1-19.3-6.5-28-10.2zm53.8 142.9c-13.6-7.8-19.5-37.5-14.9-75.7 1.1-9.4 2.9-19.3 5.1-29.4 19.6 4.8 41 8.5 63.5 10.9 13.5 18.5 27.5 35.3 41.6 50-32.6 30.3-63.2 46.9-84 46.9-4.5-.1-8.3-1-11.3-2.7zm237.2-76.2c4.7 38.2-1.1 67.9-14.6 75.8-3 1.8-6.9 2.6-11.5 2.6-20.7 0-51.4-16.5-84-46.6 14-14.7 28-31.4 41.3-49.9 22.6-2.4 44-6.1 63.6-11 2.3 10.1 4.1 19.8 5.2 29.1zm38.5-66.7c-8.6 3.7-18 7-27.7 10.1-5.7-19.6-13.2-40-22.5-60.9 9.2-20.8 16.6-41.1 22.2-60.6 9.9 3.1 19.3 6.5 28.1 10.2 35.4 15.1 58.3 34.9 58.3 50.6-.1 15.7-23 35.6-58.4 50.6z">
            </path>
            <circle cx="420.9" cy="296.5" r="45.7"></circle>
        </g>
    </symbol>
    <symbol xmlns="http://www.w3.org/2000/svg" id="SCSS" viewBox="0 0 512 384">
        <path fill="#CF649A"
            d="M440.6 220.6c-17.9.101-33.4 4.4-46.4 10.801-4.8-9.5-9.6-17.801-10.399-24-.9-7.2-2-11.601-.9-20.2C384 178.6 389 166.4 389 165.4c-.101-.9-1.101-5.3-11.4-5.4s-19.2 2-20.2 4.7-3 8.9-4.3 15.3c-1.8 9.4-20.6 42.7-31.3 60.2-3.5-6.8-6.5-12.8-7.101-17.601-.899-7.199-2-11.6-.899-20.199 1.1-8.601 6.1-20.8 6.1-21.8-.1-.9-1.1-5.3-11.399-5.4-10.301-.1-19.2 2-20.2 4.7s-2.1 9.1-4.3 15.3C281.9 201.4 256.9 257 250.4 271.5c-3.3 7.4-6.199 13.3-8.3 17.3-2.1 4-.1.3-.3.7-1.8 3.4-2.8 5.3-2.8 5.3v.101c-1.4 2.5-2.9 4.899-3.601 4.899-.5 0-1.5-6.7.2-15.899 3.7-19.301 12.7-49.4 12.601-50.5 0-.5 1.699-5.801-5.801-8.5-7.3-2.7-9.899 1.8-10.5 1.8-.6 0-1.1 1.6-1.1 1.6s8.1-33.899-15.5-33.899c-14.8 0-35.2 16.1-45.3 30.8-6.4 3.5-20 10.899-34.4 18.8-5.5 3-11.2 6.2-16.6 9.1L117.9 251.9c-28.6-30.5-81.5-52.1-79.3-93.1.8-14.9 6-54.2 101.601-101.8 78.3-39 141-28.3 151.899-4.5 15.5 34-33.5 97.2-114.899 106.3-31 3.5-47.301-8.5-51.4-13-4.3-4.7-4.9-4.9-6.5-4-2.6 1.4-1 5.6 0 8.1 2.4 6.3 12.4 17.5 29.4 23.1 14.899 4.9 51.3 7.6 95.3-9.4 49.3-19.1 87.8-72.1 76.5-116.4-11.5-45.1-86.3-59.9-157-34.8C121.4 27.4 75.8 50.8 43 81.5 4 117.9-2.2 149.7.4 162.9c9.101 47.1 74 77.8 100 100.5-1.3.699-2.5 1.399-3.6 2-13 6.399-62.5 32.3-74.9 59.699-14 31 2.2 53.301 13 56.301 33.4 9.3 67.6-7.4 86.1-34.9 18.399-27.5 16.2-63.2 7.7-79.5l-.301-.6 10.2-6c6.601-3.9 13.101-7.5 18.8-10.601-3.199 8.7-5.5 19-6.699 34-1.4 17.601 5.8 40.4 15.3 49.4 4.2 3.899 9.2 4 12.3 4 11 0 16-9.101 21.5-20 6.8-13.3 12.8-28.7 12.8-28.7s-7.5 41.7 13 41.7c7.5 0 15-9.7 18.4-14.7v.1s.2-.3.6-1a36.13 36.13 0 0 0 1.2-1.899v-.2c3-5.2 9.7-17.1 19.7-36.8 12.899-25.4 25.3-57.2 25.3-57.2s1.2 7.8 4.9 20.6c2.199 7.601 6.999 15.9 10.699 24-3 4.2-4.8 6.601-4.8 6.601l.1.1c-2.399 3.2-5.1 6.601-7.899 10-10.2 12.2-22.4 26.101-24 30.101-1.9 4.699-1.5 8.199 2.2 11 2.7 2 7.5 2.399 12.6 2 9.2-.601 15.6-2.9 18.8-4.301 5-1.8 10.7-4.5 16.2-8.5 10-7.399 16.1-17.899 15.5-31.899-.3-7.7-2.8-15.3-5.9-22.5.9-1.3 1.801-2.601 2.7-4 15.8-23.101 28-48.5 28-48.5s1.2 7.8 4.9 20.6c1.899 6.5 5.7 13.601 9.1 20.601-14.8 12.1-24.1 26.1-27.3 35.3-5.9 17-1.3 24.7 7.4 26.5 3.899.8 9.5-1 13.699-2.8 5.2-1.7 11.5-4.601 17.301-8.9 10-7.4 19.6-17.7 19.1-31.6-.3-6.4-2-12.7-4.3-18.7 12.6-5.2 28.899-8.2 49.6-5.7 44.5 5.2 53.3 33 51.601 44.6-1.7 11.601-11 18-14.101 20-3.1 1.9-4.1 2.601-3.8 4 .4 2.101 1.8 2 4.5 1.601 3.7-.601 23.4-9.5 24.2-30.899 1.2-27.504-24.9-57.504-71.2-57.205zM97.4 336.3c-14.7 16.1-35.4 22.2-44.2 17-9.5-5.5-5.801-29.2 12.3-46.3 11-10.4 25.3-20 34.7-25.9 2.1-1.3 5.3-3.199 9.1-5.5.6-.399 1-.6 1-.6.7-.4 1.5-.9 2.3-1.4 6.7 24.4.3 45.8-15.2 62.7zm107.5-73.1c-5.1 12.5-15.9 44.6-22.4 42.8-5.601-1.5-9-25.8-1.101-49.8 4-12.101 12.5-26.5 17.5-32.101 8.101-9 16.9-12 19.101-8.3 2.6 4.801-9.9 39.601-13.1 47.401zm88.7 42.4c-2.2 1.101-4.2 1.9-5.1 1.301-.7-.4.899-1.9.899-1.9s11.1-11.9 15.5-17.4c2.5-3.199 5.5-6.899 8.7-11.1v1.2C313.6 292.1 299.8 301.7 293.6 305.6zm68.399-15.6c-1.6-1.2-1.399-4.9 4-16.5 2.101-4.6 6.9-12.3 15.2-19.6 1 3 1.601 5.899 1.5 8.6-.099 18-12.899 24.7-20.7 27.5z">
        </path>
    </symbol>
    <symbol xmlns="http://www.w3.org/2000/svg" id="Firebase" viewBox="0 0 32 32">
        <path d="M19.62 11.558l-3.203 2.98-2.972-5.995 1.538-3.448c.4-.7 1.024-.692 1.414 0z" fill="#ffa000"></path>
        <path d="M13.445 8.543l2.972 5.995-11.97 11.135z" fill="#f57f17"></path>
        <path
            d="M23.123 7.003c.572-.55 1.164-.362 1.315.417l3.116 18.105-10.328 6.2c-.36.2-1.32.286-1.32.286s-.874-.104-1.207-.3L4.447 25.673z"
            fill="#ffca28"></path>
        <path d="M13.445 8.543l-8.997 17.13L8.455.638c.148-.78.592-.855.988-.167z" fill="#ffa000"></path>
    </symbol>
    <symbol xmlns="http://www.w3.org/2000/svg" id="Appwrite" viewBox="0 0 64 64" fill="#F02E65">
        <g>
            <g>
                <path d="M22.9,24.3h-1.1l-0.2,0.8c-0.1,0.4-0.3,1.2-0.4,1.7c-0.1,0.5-0.3,1.4-0.5,2.2c-0.2,0.7-0.5,2-0.7,2.8
			c-0.4,1.7-0.8,3.6-1.2,4.8c-0.1,0.4-0.1,0.7,0,0.8c0,0.1,0.5,0.1,1,0.1c1,0,1,0,1.5-1.9c0.1-0.3,0.1-0.6,0.2-1
			c0.1-0.5,0.2-1.1,0.3-1.5c0.2-0.6,0.5-1.9,0.7-2.8c0.2-0.9,0.5-2.2,0.7-2.9c0.4-1.7,0.7-2.8,0.7-3C23.9,24.3,23.4,24.3,22.9,24.3z
			 M18,29.7c0.4-0.5,0.8-1,0.8-1.1c0-0.1-0.6-0.2-1.3-0.2h-1.3L15,29.9l-1.2,1.3l1.3,1.4l1.3,1.4h1.2c0.7,0,1.2-0.1,1.2-0.2
			c0-0.1-0.5-0.7-1.1-1.4C16.5,31.2,16.5,31.4,18,29.7z M27.6,29.9l-1.2-1.4h-1.3c-0.7,0-1.3,0.1-1.3,0.2c0,0.1,0.4,0.5,0.8,1.1
			c1.5,1.6,1.5,1.4,0.2,2.7c-0.6,0.7-1.1,1.2-1.1,1.4c0,0.1,0.5,0.2,1.2,0.2h1.2l1-1c0.5-0.5,1.1-1.2,1.3-1.4
			C28.8,31.3,28.8,31.2,27.6,29.9z"></path>
            </g>
            <path d="M64,31.5C63.7,20,54.3,10.7,42.7,10.7c-3.9,0-7.5,1.1-10.7,2.9c-3.1-1.8-6.8-2.9-10.7-2.9
		C10,10.7,0.7,19.5,0.1,30.8c0,0,0,0.1,0,0.2C0,31.3,0,31.6,0,32c0,0.4,0,0.9,0.1,1.3c0.7,11.2,9.9,20,21.3,20
		c3.9,0,7.5-1.1,10.7-2.9c3.1,1.8,6.8,2.9,10.7,2.9c11.6,0,21-9.3,21.3-20.8c0-0.2,0-0.4,0-0.6S64,31.7,64,31.5z M26.7,46.1
		c-1.7,0.7-3.5,1-5.4,1C13,47.1,6.2,40.3,6.2,32S13,16.9,21.3,16.9c1.9,0,3.7,0.3,5.4,1c5.7,2.2,9.7,7.7,9.7,14.1
		S32.4,43.9,26.7,46.1z"></path>
        </g>
    </symbol>
    <symbol xmlns="http://www.w3.org/2000/svg" id="ExpressJS" viewBox="0 0 50 50" fill="white">
        <path
            d="M49.729 11h-.85c-1.051 0-2.041.49-2.68 1.324l-8.7 11.377-8.7-11.377C28.162 11.49 27.171 11 26.121 11h-.85l10.971 14.346L25.036 40h.85c1.051 0 2.041-.49 2.679-1.324L37.5 26.992l8.935 11.684C47.073 39.51 48.063 40 49.114 40h.85L38.758 25.346 49.729 11zM21.289 34.242c-2.554 3.881-7.582 5.87-12.389 4.116C4.671 36.815 2 32.611 2 28.109L2 27h12v0h11l0-4.134c0-6.505-4.818-12.2-11.295-12.809C6.273 9.358 0 15.21 0 22.5l0 5.573c0 5.371 3.215 10.364 8.269 12.183 6.603 2.376 13.548-1.17 15.896-7.256 0 0 0 0 0 0h-.638C22.616 33 21.789 33.481 21.289 34.242zM2 22.5C2 16.71 6.71 12 12.5 12S23 16.71 23 22.5V25H2V22.5z">
        </path>
    </symbol>
    <symbol xmlns="http://www.w3.org/2000/svg" id="NodeJS" preserveAspectRatio="xMidYMid" fill="#8cc84b"
        viewBox="0 0 32 32">
        <path
            d="M14.656.427c.8-.453 1.82-.455 2.6 0L29.2 7.16c.747.42 1.247 1.253 1.24 2.114v13.5c.005.897-.544 1.748-1.332 2.16l-11.88 6.702a2.6 2.6 0 0 1-2.639-.073l-3.565-2.06c-.243-.145-.516-.26-.688-.495.152-.204.422-.23.642-.32.496-.158.95-.4 1.406-.656.115-.08.256-.05.366.022l3.04 1.758c.217.125.437-.04.623-.145l11.665-6.583c.144-.07.224-.222.212-.38V9.334c.016-.18-.087-.344-.25-.417L16.19 2.244a.41.41 0 0 0-.465-.001L3.892 8.93c-.16.073-.27.235-.25.415v13.37c-.014.158.07.307.215.375l3.162 1.785c.594.32 1.323.5 1.977.265a1.5 1.5 0 0 0 .971-1.409l.003-13.29c-.014-.197.172-.36.363-.34h1.52c.2-.005.357.207.33.405L12.18 23.88c.001 1.188-.487 2.48-1.586 3.063-1.354.7-3.028.553-4.366-.12l-3.4-1.88c-.8-.4-1.337-1.264-1.332-2.16v-13.5a2.46 2.46 0 0 1 1.282-2.141L14.656.427zM18.1 9.785c1.727-.1 3.576-.066 5.13.785 1.203.652 1.87 2.02 1.892 3.358-.034.18-.222.28-.394.267-.5-.001-1.002.007-1.504-.003-.213.008-.336-.188-.363-.376-.144-.64-.493-1.273-1.095-1.582-.924-.463-1.996-.44-3.004-.43-.736.04-1.527.103-2.15.535-.48.328-.624 1-.453 1.522.16.383.603.506.964.62 2.082.544 4.287.5 6.33 1.207.845.292 1.672.86 1.962 1.745.378 1.186.213 2.604-.63 3.556-.684.784-1.68 1.2-2.675 1.442-1.323.295-2.695.302-4.038.17-1.263-.144-2.577-.476-3.552-1.336-.834-.724-1.24-1.852-1.2-2.94.01-.184.193-.312.37-.297h1.5c.202-.014.35.16.36.35.093.6.322 1.25.854 1.6 1.026.662 2.313.616 3.487.635.973-.043 2.065-.056 2.86-.7.42-.367.543-.98.43-1.508-.123-.446-.6-.653-1-.8-2.055-.65-4.285-.414-6.32-1.15-.826-.292-1.625-.844-1.942-1.693-.443-1.2-.24-2.687.693-3.607.9-.915 2.22-1.268 3.47-1.394z">
        </path>
    </symbol>
</svg>