<svg class="hidden">
    <symbol xmlns="http://www.w3.org/2000/svg" id="Arrow" viewBox="0 0 24 24">
        <path d="M7 7h8.586L5.293 17.293l1.414 1.414L17 8.414V17h2V5H7v2z"></path>
    </symbol>
    <symbol xmlns="http://www.w3.org/2000/svg" id="React" viewBox="175.7 78 490.6 436.9">
        <g fill="#61dafb">
            <path
                d="m666.3 296.5c0-32.5-40.7-63.3-103.1-82.4 14.4-63.6 8-114.2-20.2-130.4-6.5-3.8-14.1-5.6-22.4-5.6v22.3c4.6 0 8.3.9 11.4 2.6 13.6 7.8 19.5 37.5 14.9 75.7-1.1 9.4-2.9 19.3-5.1 29.4-19.6-4.8-41-8.5-63.5-10.9-13.5-18.5-27.5-35.3-41.6-50 32.6-30.3 63.2-46.9 84-46.9v-22.3c-27.5 0-63.5 19.6-99.9 53.6-36.4-33.8-72.4-53.2-99.9-53.2v22.3c20.7 0 51.4 16.5 84 46.6-14 14.7-28 31.4-41.3 49.9-22.6 2.4-44 6.1-63.6 11-2.3-10-4-19.7-5.2-29-4.7-38.2 1.1-67.9 14.6-75.8 3-1.8 6.9-2.6 11.5-2.6v-22.3c-8.4 0-16 1.8-22.6 5.6-28.1 16.2-34.4 66.7-19.9 130.1-62.2 19.2-102.7 49.9-102.7 82.3 0 32.5 40.7 63.3 103.1 82.4-14.4 63.6-8 114.2 20.2 130.4 6.5 3.8 14.1 5.6 22.5 5.6 27.5 0 63.5-19.6 99.9-53.6 36.4 33.8 72.4 53.2 99.9 53.2 8.4 0 16-1.8 22.6-5.6 28.1-16.2 34.4-66.7 19.9-130.1 62-19.1 102.5-49.9 102.5-82.3zm-130.2-66.7c-3.7 12.9-8.3 26.2-13.5 39.5-4.1-8-8.4-16-13.1-24-4.6-8-9.5-15.8-14.4-23.4 14.2 2.1 27.9 4.7 41 7.9zm-45.8 106.5c-7.8 13.5-15.8 26.3-24.1 38.2-14.9 1.3-30 2-45.2 2-15.1 0-30.2-.7-45-1.9-8.3-11.9-16.4-24.6-24.2-38-7.6-13.1-14.5-26.4-20.8-39.8 6.2-13.4 13.2-26.8 20.7-39.9 7.8-13.5 15.8-26.3 24.1-38.2 14.9-1.3 30-2 45.2-2 15.1 0 30.2.7 45 1.9 8.3 11.9 16.4 24.6 24.2 38 7.6 13.1 14.5 26.4 20.8 39.8-6.3 13.4-13.2 26.8-20.7 39.9zm32.3-13c5.4 13.4 10 26.8 13.8 39.8-13.1 3.2-26.9 5.9-41.2 8 4.9-7.7 9.8-15.6 14.4-23.7 4.6-8 8.9-16.1 13-24.1zm-101.4 106.7c-9.3-9.6-18.6-20.3-27.8-32 9 .4 18.2.7 27.5.7 9.4 0 18.7-.2 27.8-.7-9 11.7-18.3 22.4-27.5 32zm-74.4-58.9c-14.2-2.1-27.9-4.7-41-7.9 3.7-12.9 8.3-26.2 13.5-39.5 4.1 8 8.4 16 13.1 24s9.5 15.8 14.4 23.4zm73.9-208.1c9.3 9.6 18.6 20.3 27.8 32-9-.4-18.2-.7-27.5-.7-9.4 0-18.7.2-27.8.7 9-11.7 18.3-22.4 27.5-32zm-74 58.9c-4.9 7.7-9.8 15.6-14.4 23.7-4.6 8-8.9 16-13 24-5.4-13.4-10-26.8-13.8-39.8 13.1-3.1 26.9-5.8 41.2-7.9zm-90.5 125.2c-35.4-15.1-58.3-34.9-58.3-50.6s22.9-35.6 58.3-50.6c8.6-3.7 18-7 27.7-10.1 5.7 19.6 13.2 40 22.5 60.9-9.2 20.8-16.6 41.1-22.2 60.6-9.9-3.1-19.3-6.5-28-10.2zm53.8 142.9c-13.6-7.8-19.5-37.5-14.9-75.7 1.1-9.4 2.9-19.3 5.1-29.4 19.6 4.8 41 8.5 63.5 10.9 13.5 18.5 27.5 35.3 41.6 50-32.6 30.3-63.2 46.9-84 46.9-4.5-.1-8.3-1-11.3-2.7zm237.2-76.2c4.7 38.2-1.1 67.9-14.6 75.8-3 1.8-6.9 2.6-11.5 2.6-20.7 0-51.4-16.5-84-46.6 14-14.7 28-31.4 41.3-49.9 22.6-2.4 44-6.1 63.6-11 2.3 10.1 4.1 19.8 5.2 29.1zm38.5-66.7c-8.6 3.7-18 7-27.7 10.1-5.7-19.6-13.2-40-22.5-60.9 9.2-20.8 16.6-41.1 22.2-60.6 9.9 3.1 19.3 6.5 28.1 10.2 35.4 15.1 58.3 34.9 58.3 50.6-.1 15.7-23 35.6-58.4 50.6z">
            </path>
            <circle cx="420.9" cy="296.5" r="45.7"></circle>
        </g>
    </symbol>
    <symbol xmlns="http://www.w3.org/2000/svg" id="SCSS" viewBox="0 0 512 384">
        <path fill="#CF649A"
            d="M440.6 220.6c-17.9.101-33.4 4.4-46.4 10.801-4.8-9.5-9.6-17.801-10.399-24-.9-7.2-2-11.601-.9-20.2C384 178.6 389 166.4 389 165.4c-.101-.9-1.101-5.3-11.4-5.4s-19.2 2-20.2 4.7-3 8.9-4.3 15.3c-1.8 9.4-20.6 42.7-31.3 60.2-3.5-6.8-6.5-12.8-7.101-17.601-.899-7.199-2-11.6-.899-20.199 1.1-8.601 6.1-20.8 6.1-21.8-.1-.9-1.1-5.3-11.399-5.4-10.301-.1-19.2 2-20.2 4.7s-2.1 9.1-4.3 15.3C281.9 201.4 256.9 257 250.4 271.5c-3.3 7.4-6.199 13.3-8.3 17.3-2.1 4-.1.3-.3.7-1.8 3.4-2.8 5.3-2.8 5.3v.101c-1.4 2.5-2.9 4.899-3.601 4.899-.5 0-1.5-6.7.2-15.899 3.7-19.301 12.7-49.4 12.601-50.5 0-.5 1.699-5.801-5.801-8.5-7.3-2.7-9.899 1.8-10.5 1.8-.6 0-1.1 1.6-1.1 1.6s8.1-33.899-15.5-33.899c-14.8 0-35.2 16.1-45.3 30.8-6.4 3.5-20 10.899-34.4 18.8-5.5 3-11.2 6.2-16.6 9.1L117.9 251.9c-28.6-30.5-81.5-52.1-79.3-93.1.8-14.9 6-54.2 101.601-101.8 78.3-39 141-28.3 151.899-4.5 15.5 34-33.5 97.2-114.899 106.3-31 3.5-47.301-8.5-51.4-13-4.3-4.7-4.9-4.9-6.5-4-2.6 1.4-1 5.6 0 8.1 2.4 6.3 12.4 17.5 29.4 23.1 14.899 4.9 51.3 7.6 95.3-9.4 49.3-19.1 87.8-72.1 76.5-116.4-11.5-45.1-86.3-59.9-157-34.8C121.4 27.4 75.8 50.8 43 81.5 4 117.9-2.2 149.7.4 162.9c9.101 47.1 74 77.8 100 100.5-1.3.699-2.5 1.399-3.6 2-13 6.399-62.5 32.3-74.9 59.699-14 31 2.2 53.301 13 56.301 33.4 9.3 67.6-7.4 86.1-34.9 18.399-27.5 16.2-63.2 7.7-79.5l-.301-.6 10.2-6c6.601-3.9 13.101-7.5 18.8-10.601-3.199 8.7-5.5 19-6.699 34-1.4 17.601 5.8 40.4 15.3 49.4 4.2 3.899 9.2 4 12.3 4 11 0 16-9.101 21.5-20 6.8-13.3 12.8-28.7 12.8-28.7s-7.5 41.7 13 41.7c7.5 0 15-9.7 18.4-14.7v.1s.2-.3.6-1a36.13 36.13 0 0 0 1.2-1.899v-.2c3-5.2 9.7-17.1 19.7-36.8 12.899-25.4 25.3-57.2 25.3-57.2s1.2 7.8 4.9 20.6c2.199 7.601 6.999 15.9 10.699 24-3 4.2-4.8 6.601-4.8 6.601l.1.1c-2.399 3.2-5.1 6.601-7.899 10-10.2 12.2-22.4 26.101-24 30.101-1.9 4.699-1.5 8.199 2.2 11 2.7 2 7.5 2.399 12.6 2 9.2-.601 15.6-2.9 18.8-4.301 5-1.8 10.7-4.5 16.2-8.5 10-7.399 16.1-17.899 15.5-31.899-.3-7.7-2.8-15.3-5.9-22.5.9-1.3 1.801-2.601 2.7-4 15.8-23.101 28-48.5 28-48.5s1.2 7.8 4.9 20.6c1.899 6.5 5.7 13.601 9.1 20.601-14.8 12.1-24.1 26.1-27.3 35.3-5.9 17-1.3 24.7 7.4 26.5 3.899.8 9.5-1 13.699-2.8 5.2-1.7 11.5-4.601 17.301-8.9 10-7.4 19.6-17.7 19.1-31.6-.3-6.4-2-12.7-4.3-18.7 12.6-5.2 28.899-8.2 49.6-5.7 44.5 5.2 53.3 33 51.601 44.6-1.7 11.601-11 18-14.101 20-3.1 1.9-4.1 2.601-3.8 4 .4 2.101 1.8 2 4.5 1.601 3.7-.601 23.4-9.5 24.2-30.899 1.2-27.504-24.9-57.504-71.2-57.205zM97.4 336.3c-14.7 16.1-35.4 22.2-44.2 17-9.5-5.5-5.801-29.2 12.3-46.3 11-10.4 25.3-20 34.7-25.9 2.1-1.3 5.3-3.199 9.1-5.5.6-.399 1-.6 1-.6.7-.4 1.5-.9 2.3-1.4 6.7 24.4.3 45.8-15.2 62.7zm107.5-73.1c-5.1 12.5-15.9 44.6-22.4 42.8-5.601-1.5-9-25.8-1.101-49.8 4-12.101 12.5-26.5 17.5-32.101 8.101-9 16.9-12 19.101-8.3 2.6 4.801-9.9 39.601-13.1 47.401zm88.7 42.4c-2.2 1.101-4.2 1.9-5.1 1.301-.7-.4.899-1.9.899-1.9s11.1-11.9 15.5-17.4c2.5-3.199 5.5-6.899 8.7-11.1v1.2C313.6 292.1 299.8 301.7 293.6 305.6zm68.399-15.6c-1.6-1.2-1.399-4.9 4-16.5 2.101-4.6 6.9-12.3 15.2-19.6 1 3 1.601 5.899 1.5 8.6-.099 18-12.899 24.7-20.7 27.5z">
        </path>
    </symbol>
    <symbol xmlns="http://www.w3.org/2000/svg" id="github" viewBox="0 0 16 16">
        <path
            d="M7.999 0C3.582 0 0 3.596 0 8.032a8.031 8.031 0 0 0 5.472 7.621c.4.074.546-.174.546-.387 0-.191-.007-.696-.011-1.366-2.225.485-2.695-1.077-2.695-1.077-.363-.928-.888-1.175-.888-1.175-.727-.498.054-.488.054-.488.803.057 1.225.828 1.225.828.714 1.227 1.873.873 2.329.667.072-.519.279-.873.508-1.074-1.776-.203-3.644-.892-3.644-3.969 0-.877.312-1.594.824-2.156-.083-.203-.357-1.02.078-2.125 0 0 .672-.216 2.2.823a7.633 7.633 0 0 1 2.003-.27 7.65 7.65 0 0 1 2.003.271c1.527-1.039 2.198-.823 2.198-.823.436 1.106.162 1.922.08 2.125.513.562.822 1.279.822 2.156 0 3.085-1.87 3.764-3.652 3.963.287.248.543.738.543 1.487 0 1.074-.01 1.94-.01 2.203 0 .215.144.465.55.386A8.032 8.032 0 0 0 16 8.032C16 3.596 12.418 0 7.999 0z">
        </path>
    </symbol>
    <symbol xmlns="http://www.w3.org/2000/svg" id="Firebase" viewBox="0 0 32 32">
        <path d="M19.62 11.558l-3.203 2.98-2.972-5.995 1.538-3.448c.4-.7 1.024-.692 1.414 0z" fill="#ffa000"></path>
        <path d="M13.445 8.543l2.972 5.995-11.97 11.135z" fill="#f57f17"></path>
        <path
            d="M23.123 7.003c.572-.55 1.164-.362 1.315.417l3.116 18.105-10.328 6.2c-.36.2-1.32.286-1.32.286s-.874-.104-1.207-.3L4.447 25.673z"
            fill="#ffca28"></path>
        <path d="M13.445 8.543l-8.997 17.13L8.455.638c.148-.78.592-.855.988-.167z" fill="#ffa000"></path>
    </symbol>
    <symbol xmlns="http://www.w3.org/2000/svg" id="Appwrite" viewBox="0 0 64 64" fill="#F02E65">
        <g>
            <g>
                <path d="M22.9,24.3h-1.1l-0.2,0.8c-0.1,0.4-0.3,1.2-0.4,1.7c-0.1,0.5-0.3,1.4-0.5,2.2c-0.2,0.7-0.5,2-0.7,2.8
			c-0.4,1.7-0.8,3.6-1.2,4.8c-0.1,0.4-0.1,0.7,0,0.8c0,0.1,0.5,0.1,1,0.1c1,0,1,0,1.5-1.9c0.1-0.3,0.1-0.6,0.2-1
			c0.1-0.5,0.2-1.1,0.3-1.5c0.2-0.6,0.5-1.9,0.7-2.8c0.2-0.9,0.5-2.2,0.7-2.9c0.4-1.7,0.7-2.8,0.7-3C23.9,24.3,23.4,24.3,22.9,24.3z
			 M18,29.7c0.4-0.5,0.8-1,0.8-1.1c0-0.1-0.6-0.2-1.3-0.2h-1.3L15,29.9l-1.2,1.3l1.3,1.4l1.3,1.4h1.2c0.7,0,1.2-0.1,1.2-0.2
			c0-0.1-0.5-0.7-1.1-1.4C16.5,31.2,16.5,31.4,18,29.7z M27.6,29.9l-1.2-1.4h-1.3c-0.7,0-1.3,0.1-1.3,0.2c0,0.1,0.4,0.5,0.8,1.1
			c1.5,1.6,1.5,1.4,0.2,2.7c-0.6,0.7-1.1,1.2-1.1,1.4c0,0.1,0.5,0.2,1.2,0.2h1.2l1-1c0.5-0.5,1.1-1.2,1.3-1.4
			C28.8,31.3,28.8,31.2,27.6,29.9z"></path>
            </g>
            <path d="M64,31.5C63.7,20,54.3,10.7,42.7,10.7c-3.9,0-7.5,1.1-10.7,2.9c-3.1-1.8-6.8-2.9-10.7-2.9
		C10,10.7,0.7,19.5,0.1,30.8c0,0,0,0.1,0,0.2C0,31.3,0,31.6,0,32c0,0.4,0,0.9,0.1,1.3c0.7,11.2,9.9,20,21.3,20
		c3.9,0,7.5-1.1,10.7-2.9c3.1,1.8,6.8,2.9,10.7,2.9c11.6,0,21-9.3,21.3-20.8c0-0.2,0-0.4,0-0.6S64,31.7,64,31.5z M26.7,46.1
		c-1.7,0.7-3.5,1-5.4,1C13,47.1,6.2,40.3,6.2,32S13,16.9,21.3,16.9c1.9,0,3.7,0.3,5.4,1c5.7,2.2,9.7,7.7,9.7,14.1
		S32.4,43.9,26.7,46.1z"></path>
        </g>
    </symbol>
    <symbol xmlns="http://www.w3.org/2000/svg" id="ExpressJS" viewBox="0 0 50 50" fill="black">
        <path
            d="M49.729 11h-.85c-1.051 0-2.041.49-2.68 1.324l-8.7 11.377-8.7-11.377C28.162 11.49 27.171 11 26.121 11h-.85l10.971 14.346L25.036 40h.85c1.051 0 2.041-.49 2.679-1.324L37.5 26.992l8.935 11.684C47.073 39.51 48.063 40 49.114 40h.85L38.758 25.346 49.729 11zM21.289 34.242c-2.554 3.881-7.582 5.87-12.389 4.116C4.671 36.815 2 32.611 2 28.109L2 27h12v0h11l0-4.134c0-6.505-4.818-12.2-11.295-12.809C6.273 9.358 0 15.21 0 22.5l0 5.573c0 5.371 3.215 10.364 8.269 12.183 6.603 2.376 13.548-1.17 15.896-7.256 0 0 0 0 0 0h-.638C22.616 33 21.789 33.481 21.289 34.242zM2 22.5C2 16.71 6.71 12 12.5 12S23 16.71 23 22.5V25H2V22.5z">
        </path>
    </symbol>
    <symbol xmlns="http://www.w3.org/2000/svg" id="NodeJS" preserveAspectRatio="xMidYMid" fill="#8cc84b"
        viewBox="0 0 32 32">
        <path
            d="M14.656.427c.8-.453 1.82-.455 2.6 0L29.2 7.16c.747.42 1.247 1.253 1.24 2.114v13.5c.005.897-.544 1.748-1.332 2.16l-11.88 6.702a2.6 2.6 0 0 1-2.639-.073l-3.565-2.06c-.243-.145-.516-.26-.688-.495.152-.204.422-.23.642-.32.496-.158.95-.4 1.406-.656.115-.08.256-.05.366.022l3.04 1.758c.217.125.437-.04.623-.145l11.665-6.583c.144-.07.224-.222.212-.38V9.334c.016-.18-.087-.344-.25-.417L16.19 2.244a.41.41 0 0 0-.465-.001L3.892 8.93c-.16.073-.27.235-.25.415v13.37c-.014.158.07.307.215.375l3.162 1.785c.594.32 1.323.5 1.977.265a1.5 1.5 0 0 0 .971-1.409l.003-13.29c-.014-.197.172-.36.363-.34h1.52c.2-.005.357.207.33.405L12.18 23.88c.001 1.188-.487 2.48-1.586 3.063-1.354.7-3.028.553-4.366-.12l-3.4-1.88c-.8-.4-1.337-1.264-1.332-2.16v-13.5a2.46 2.46 0 0 1 1.282-2.141L14.656.427zM18.1 9.785c1.727-.1 3.576-.066 5.13.785 1.203.652 1.87 2.02 1.892 3.358-.034.18-.222.28-.394.267-.5-.001-1.002.007-1.504-.003-.213.008-.336-.188-.363-.376-.144-.64-.493-1.273-1.095-1.582-.924-.463-1.996-.44-3.004-.43-.736.04-1.527.103-2.15.535-.48.328-.624 1-.453 1.522.16.383.603.506.964.62 2.082.544 4.287.5 6.33 1.207.845.292 1.672.86 1.962 1.745.378 1.186.213 2.604-.63 3.556-.684.784-1.68 1.2-2.675 1.442-1.323.295-2.695.302-4.038.17-1.263-.144-2.577-.476-3.552-1.336-.834-.724-1.24-1.852-1.2-2.94.01-.184.193-.312.37-.297h1.5c.202-.014.35.16.36.35.093.6.322 1.25.854 1.6 1.026.662 2.313.616 3.487.635.973-.043 2.065-.056 2.86-.7.42-.367.543-.98.43-1.508-.123-.446-.6-.653-1-.8-2.055-.65-4.285-.414-6.32-1.15-.826-.292-1.625-.844-1.942-1.693-.443-1.2-.24-2.687.693-3.607.9-.915 2.22-1.268 3.47-1.394z">
        </path>
    </symbol>
    <symbol xmlns="http://www.w3.org/2000/svg" id="mongodb" viewBox="0 0 24 24">
        <path fill="#FFF"
            d="m12.546 24-.639-.218s.078-3.257-1.091-3.491c-.779-.904.125-38.338 2.93-.125 0 0-.966.483-1.138 1.309-.186.811-.062 2.525-.062 2.525z">
        </path>
        <path fill="#A6A385"
            d="m12.546 24-.639-.218s.078-3.257-1.091-3.491c-.779-.904.125-38.338 2.93-.125 0 0-.966.483-1.138 1.309-.186.811-.062 2.525-.062 2.525z">
        </path>
        <path fill="#FFF"
            d="M12.889 20.852s5.595-3.678 4.286-11.33c-1.262-5.563-4.239-7.387-4.566-8.088-.358-.499-.701-1.371-.701-1.371l.234 15.475c-.001.015-.484 4.737.747 5.314z">
        </path>
        <path fill="#499D4A"
            d="M12.889 20.852s5.595-3.678 4.286-11.33c-1.262-5.563-4.239-7.387-4.566-8.088-.358-.499-.701-1.371-.701-1.371l.234 15.475c-.001.015-.484 4.737.747 5.314z">
        </path>
        <path fill="#FFF"
            d="M11.58 21.054s-5.252-3.584-4.94-9.896c.296-6.312 4.005-9.413 4.722-9.974.468-.498.483-.685.514-1.184.327.701.265 10.488.312 11.641.14 4.442-.249 8.572-.608 9.413z">
        </path>
        <path fill="#58AA50"
            d="M11.58 21.054s-5.252-3.584-4.94-9.896c.296-6.312 4.005-9.413 4.722-9.974.468-.498.483-.685.514-1.184.327.701.265 10.488.312 11.641.14 4.442-.249 8.572-.608 9.413z">
        </path>
    </symbol>
    <symbol xmlns="http://www.w3.org/2000/svg" id="soundOff" viewBox="0 0 100 125">
        <path
            d="M32.896,35.483h13.793l20.259-16.207c1.487-1.19,3.657-0.95,4.847,0.537c0.49,0.612,0.758,1.373,0.757,2.156v58.066  c0.001,1.904-1.542,3.448-3.447,3.449c-0.784,0-1.544-0.267-2.156-0.757l-20.259-16.21H32.896c-1.904,0-3.448-1.544-3.448-3.449  V38.931C29.448,37.026,30.992,35.483,32.896,35.483z">
        </path>
    </symbol>
    <symbol xmlns="http://www.w3.org/2000/svg" id="soundOn" viewBox="0 0 100 125">
        <g>
            <g>
                <path
                    d="M72.2,33.2c-2-1.6-5-1.4-6.7,0.7c-1.7,2.1-1.3,5.1,0.8,6.8c2.7,2.2,4.4,5.6,4.4,9.3c0,4-1.9,7.5-4.9,9.7     c-1.9,1.4-2.2,4.2-0.7,6l0.4,0.4c1.6,1.9,4.6,2.3,6.5,0.8c5-3.9,8.2-10.1,8.2-16.9C80.2,43.2,77.1,37.2,72.2,33.2z">
                </path>
                <path
                    d="M83.1,19.8c-2-1.6-4.9-1.2-6.6,0.7l0,0c-1.6,2-1.4,5,0.6,6.6C83.7,32.6,88,40.8,88,50c0,9.2-4.3,17.5-10.9,22.9     c-2,1.6-2.2,4.6-0.6,6.6l0,0c1.6,2,4.6,2.4,6.6,0.8c8.8-7.1,14.5-18,14.5-30.2C97.5,37.8,91.9,26.9,83.1,19.8z">
                </path>
                <path
                    d="M44.3,12.5L20,31.2H8.1c-3.1,0-5.6,2.5-5.6,5.6v26.4c0,3.1,2.5,5.6,5.6,5.6H20l24.4,18.7c4.3,3.3,10.4,0.3,10.4-5.2V17.6     C54.8,12.3,48.6,9.2,44.3,12.5z">
                </path>
            </g>
        </g>
    </symbol>
    <symbol xmlns="http://www.w3.org/2000/svg" id="html" viewBox="0 0 48 48">
        <path fill="#E65100" d="M41,5H7l3,34l14,4l14-4L41,5L41,5z"></path>
        <path fill="#FF6D00" d="M24 8L24 39.9 35.2 36.7 37.7 8z"></path>
        <path fill="#FFF" d="M24,25v-4h8.6l-0.7,11.5L24,35.1v-4.2l4.1-1.4l0.3-4.5H24z M32.9,17l0.3-4H24v4H32.9z"></path>
        <path fill="#EEE"
            d="M24,30.9v4.2l-7.9-2.6L15.7,27h4l0.2,2.5L24,30.9z M19.1,17H24v-4h-9.1l0.7,12H24v-4h-4.6L19.1,17z"></path>
    </symbol>
    <symbol xmlns="http://www.w3.org/2000/svg" id="css" viewBox="0 0 48 48">
        <linearGradient id="TQDriqswrKwPOniLrPT12a" x1="16.33" x2="32.293" y1="-2.748" y2="41.109"
            gradientUnits="userSpaceOnUse">
            <stop offset="0" stop-color="#2aa4f4"></stop>
            <stop offset="1" stop-color="#007ad9"></stop>
        </linearGradient>
        <path fill="url(#TQDriqswrKwPOniLrPT12a)"
            d="M7.192,7.176l2.627,29.77c0.109,1.237,0.97,2.28,2.164,2.621l10.643,3.041	c0.898,0.257,1.849,0.257,2.747,0l10.643-3.041c1.194-0.341,2.055-1.383,2.164-2.621l2.627-29.77C40.911,6.006,39.99,5,38.816,5	H9.184C8.01,5,7.089,6.006,7.192,7.176z">
        </path>
        <path fill="#35c1f1"
            d="M24,8v31.9l9.876-2.822c0.797-0.228,1.371-0.924,1.443-1.749l2.286-26.242	C37.656,8.502,37.196,8,36.609,8H24z">
        </path>
        <path fill="#fff" d="M33.1,13H24v4h4.9l-0.3,4H24v4h4.4l-0.3,4.5L24,30.9v4.2l7.9-2.6L32.6,21l0,0L33.1,13z">
        </path>
        <path fill="#d6e0e9"
            d="M24,13v4h-8.9l-0.3-4H24z M19.4,21l0.2,4H24v-4H19.4z M19.8,27h-4l0.3,5.5l7.9,2.6v-4.2l-4.1-1.4	L19.8,27z">
        </path>
        <path
            d="M33.1,13l-0.5,8l-0.7,11.5L24,35.1l-7.9-2.6L15.8,27h4l0.1,2.5l4.1,1.4l4.1-1.4l0.3-4.5H24h-4.4l-0.2-4H24h4.6l0.3-4H24 h-8.9l-0.3-4H24H33.1 M34.164,12H33.1H24h-9.2h-1.078l0.081,1.075l0.3,4L14.172,18H15.1H24h3.822l-0.15,2H24h-4.6h-1.051 l0.052,1.05l0.2,4L18.649,26H15.8h-1.056l0.058,1.054l0.3,5.5l0.037,0.682l0.649,0.214l7.9,2.6L24,36.153l0.313-0.103l7.9-2.6 l0.644-0.212l0.041-0.677l0.7-11.5l0.5-7.998L34.164,12L34.164,12z M20.761,26H24h3.331l-0.185,2.769L24,29.843l-3.128-1.068 l-0.073-1.815L20.761,26L20.761,26z"
            opacity=".05"></path>
        <path
            d="M33.1,13l-0.5,8l-0.7,11.5L24,35.1l-7.9-2.6L15.8,27h4l0.1,2.5l4.1,1.4l4.1-1.4l0.3-4.5H24h-4.4l-0.2-4H24h4.6l0.3-4H24 h-8.9l-0.3-4H24H33.1 M33.632,12.5H33.1H24h-9.2h-0.539l0.04,0.537l0.3,4l0.035,0.463H15.1H24h4.361l-0.225,3H24h-4.6h-0.526 l0.026,0.525l0.2,4l0.024,0.475H19.6H24h3.866l-0.242,3.634L24,30.372l-3.614-1.234L20.3,26.98L20.28,26.5H19.8h-4h-0.528 l0.029,0.527l0.3,5.5l0.019,0.341l0.324,0.107l7.9,2.6L24,35.626l0.156-0.051l7.9-2.6l0.322-0.106l0.021-0.339l0.7-11.5l0.5-7.999 L33.632,12.5L33.632,12.5z"
            opacity=".07"></path>
    </symbol>
    <symbol xmlns="http://www.w3.org/2000/svg" id="js" viewBox="0 0 48 48">
        <path fill="#ffd600" d="M6,42V6h36v36H6z"></path>
        <path fill="#000001"
            d="M29.538 32.947c.692 1.124 1.444 2.201 3.037 2.201 1.338 0 2.04-.665 2.04-1.585 0-1.101-.726-1.492-2.198-2.133l-.807-.344c-2.329-.988-3.878-2.226-3.878-4.841 0-2.41 1.845-4.244 4.728-4.244 2.053 0 3.528.711 4.592 2.573l-2.514 1.607c-.553-.988-1.151-1.377-2.078-1.377-.946 0-1.545.597-1.545 1.377 0 .964.6 1.354 1.985 1.951l.807.344C36.452 29.645 38 30.839 38 33.523 38 36.415 35.716 38 32.65 38c-2.999 0-4.702-1.505-5.65-3.368L29.538 32.947zM17.952 33.029c.506.906 1.275 1.603 2.381 1.603 1.058 0 1.667-.418 1.667-2.043V22h3.333v11.101c0 3.367-1.953 4.899-4.805 4.899-2.577 0-4.437-1.746-5.195-3.368L17.952 33.029z">
        </path>
    </symbol>
    <symbol xmlns="http://www.w3.org/2000/svg" id="sanity" viewBox="0 -204 512 512">
        <g>
            <polygon fill="#F37368"
                points="381.461756 36.9858357 381.461756 101.81983 360.575637 101.81983 360.575637 26.8328612">
            </polygon>
            <path
                d="M85.8651558,89.7813031 L101.529745,103.415297 L167.524079,69.0402266 L160.707082,52.6504249 L85.8651558,89.7813031 Z M360.575637,48.0090652 L413.66119,20.4509915 L404.668555,4.93144476 L360.575637,26.8328612 L360.575637,48.0090652 Z"
                fill="#F7A199"></path>
            <path
                d="M211.18187,31.9093484 L211.18187,101.81983 L191.166006,101.81983 L191.166006,2.17563739 L211.18187,31.9093484 Z M85.8651558,89.7813031 L101.529745,103.415297 L131.698584,27.9932011 L121.980737,2.17563739 L85.8651558,89.7813031 Z"
                fill="#F37368"></path>
            <path
                d="M121.980737,2.17563739 L142.576771,2.17563739 L180.722946,101.81983 L159.546742,101.81983 L121.980737,2.17563739 Z M214.227762,2.17563739 L258.175637,70.2005666 L258.175637,101.81983 L191.166006,2.17563739 L214.227762,2.17563739 Z M295.886686,2.17563739 L316.627762,2.17563739 L316.627762,101.81983 L295.886686,101.81983 L295.886686,2.17563739 Z M360.575637,20.4509915 L328.666289,20.4509915 L328.666289,2.17563739 L403.073088,2.17563739 L413.66119,20.4509915 L381.461756,20.4509915 L360.575637,20.4509915 Z"
                fill="#F04939"></path>
            <polyline fill="#F7A199"
                points="475.014164 63.9637394 475.014164 101.81983 454.41813 101.81983 454.41813 63.9637394"></polyline>
            <polygon fill="#F04939"
                points="489.228329 2.17563739 454.41813 63.9637394 475.014164 63.9637394 511.129745 2.17563739">
            </polygon>
            <polygon fill="#F37368"
                points="454.41813 63.9637394 418.447592 2.17563739 441.074221 2.17563739 465.296317 44.5280453">
            </polygon>
            <path
                d="M8.55750708,13.7790368 C8.55750708,27.5580737 17.1150142,35.8254958 34.2300283,40.1767705 L52.3603399,44.3830028 C68.6050992,48.1541076 78.4679887,57.4368272 78.4679887,72.5212465 C78.6130312,79.0481586 76.4373938,85.4300283 72.5212465,90.6515581 C72.5212465,75.5671388 64.6889518,67.4447592 45.9784703,62.5133144 L28.1382436,58.4521246 C13.7790368,55.2611898 2.75580737,47.5739377 2.75580737,31.184136 C2.75580737,24.9473088 4.78640227,18.7104816 8.55750708,13.7790368"
                fill="#F04939"></path>
            <polygon fill="#F37368"
                points="258.175637 65.1240793 258.175637 2.17563739 278.191501 2.17563739 278.191501 101.81983 258.175637 101.81983">
            </polygon>
            <path
                d="M61.3529745,68.7501416 C69.0402266,73.6815864 72.5212465,80.6436261 72.5212465,90.6515581 C65.9943343,98.9189802 54.8260623,103.415297 41.6271955,103.415297 C19.4356941,103.415297 3.62606232,92.392068 0.290084986,73.3915014 L21.6113314,73.3915014 C24.3671388,82.094051 31.6192635,86.1552408 41.482153,86.1552408 C53.2305949,86.3002833 61.207932,79.9184136 61.3529745,68.7501416 M8.55750708,13.6339943 C14.7943343,5.51161473 25.5274788,0.580169972 38.5813031,0.580169972 C61.3529745,0.580169972 74.4067989,12.6186969 77.7427762,29.4436261 L57.1467422,29.4436261 C54.8260623,22.7716714 49.1694051,17.5501416 38.8713881,17.5501416 C27.7031161,17.6951841 20.1609065,24.0770538 19.725779,34.2300283 C12.2517705,30.1081799 8.2674221,22.0464589 8.55750708,13.6339943 Z"
                fill="#F37368"></path>
        </g>
    </symbol>
    <symbol xmlns="http://www.w3.org/2000/svg" id="jquery" viewBox="0 0 120 60">
        <g fill="#ffffff">
            <path
                d="M52.538 26.516L51.8 29.13l.738-2.615zm3.796 5.678l-.813-.005.813.005zm-.2 3.906l-4.872.018 4.872-.018zm1.02-3.9l-.814-.005.814.005zm-.592 3.57l.85-3.237-.85 3.237zm17.94-14.9l-1.58 7.433 1.58-7.433zm-4.064-.01l-1.2 5.553 1.2-5.553z">
            </path>
            <path
                d="M74.22 20.527h-3.38c-.188 0-.374.15-.414.334l-2.4 11.107c-.04.183-.226.333-.413.333H65.22c-2.368 0-2.094-1.637-1.6-3.88l.015-.068.287-1.53.124-.63 1.092-5.332c.038-.184-.085-.335-.273-.335h-3.47a.44.44 0 0 0-.412.334L59.4 28.274c-.86 3.924-.632 7.666 4.04 7.783h7.467c.188 0 .373-.15.413-.334l3.162-14.866c.04-.184-.083-.334-.27-.334zM87.7 32.34c.188 0 .3.15.273.334l-.328 1.605m-.32 1.605l.328-1.606-.328 1.606zm-.4.338l-6.23.03 6.23-.03z">
            </path>
            <path
                d="M78.667 30.273c-.003-.176.197-.478.385-.478l-.422-.007c-.2 1.914.037.485.037.485zm2.325 5.977h-.065.065zm6.708-3.9c.188 0 .3.15.273.334L87.6 34.54m-5.008 1.707h-.014.014zm-.83.003h-.048.048zm-.252 0h-.08.08zm-.258 0h-.07.07zm.462 0h-.205.205z">
            </path>
            <path
                d="M82.58 36.247l-.816.003.816-.003zm4.337-.027l-4.325.026 4.325-.026zm.4-.335l.275-1.344-.275 1.345zm-5.896.365h-.178.178zm-.505.002h-.24.24zm.254-.002h-.2.2zm-49.458-5.937l.525-2.328-.6 2.66-.07.334.146-.668zM38 20.488h-3.713a.45.45 0 0 0-.417.333l-.704 3.1a.26.26 0 0 0 .266.333h3.742c.188 0 .374-.15.414-.333l.68-3.107c.04-.183-.08-.333-.27-.333zm-.8 5.17l-1.1 5.038 1.1-5.038zM26.414 42.35l3.062.024c-.904 0-2.397-.017-3.063-.025z">
            </path>
            <path
                d="M32.773 25.657l-.526 2.328.526-2.328zm4.16-.334H33.2a.45.45 0 0 0-.417.333l-1.05 4.656-.146.668-1 4.753a7.16 7.16 0 0 1-.18.657s-.7 2.08-1.874 2.057l-1.165-.022a.45.45 0 0 0-.42.326l-.776 3.262a.26.26 0 0 0 .261.336l3.063.025c2.936 0 4.483-1.627 5.476-6.307l2.25-10.4c.04-.183-.082-.333-.27-.333zm53.16 10.737c-.188 0-.3-.15-.27-.334L92.64 22.54m1.366 13.186l1.14-5.628-1.14 5.628z">
            </path>
            <path
                d="M89.865 35.894c-.023-.092-.01-.317.03-.5l1.336-6.26-1.408 6.593c-.04.184.082.334.27.334h.342c-.188 0-.548-.075-.57-.167zm3.92.092c-.102.04-.34.075-.528.075h.342a.44.44 0 0 0 .41-.335l.068-.334c-.037.184-.2.553-.3.594zm.792-3.074l.503-2.484-.503 2.484zm11.108-9.488l.155.64c.043.183-.076.332-.263.333">
            </path>
            <path
                d="M94.075 35.392l.5-2.48-.5 2.48zm11.455-12.625l.153.656-.153-.656zM95.08 30.43l.138-.664.537-2.515-.608 2.848-.067.33zm-2.395-8.106l-.117.55-1.336 6.26 1.408-6.593.045-.216z">
            </path>
            <path
                d="M105.84 24.064l-.155-.64-.23-1c-.304-1.18-1.196-1.863-3.134-1.863l-8.92-.006a.44.44 0 0 0-.412.334l-.138.653-.2.987-2.744 12.853c-.04.184-.053.4-.03.5s.383.167.57.167h2.82c.188 0 .425-.034.528-.075s.254-.4.3-.594l1.07-5.294 1.145-5.364c.04-.183.225-.332.412-.333l8.873-.004c.187 0 .306-.15.263-.333zm11.422-5.794l-.683.003h-2.84a.73.73 0 0 0-.534.282l-6.28 9.2c-.106.155-.227.132-.27-.05l-.462-2.027a.45.45 0 0 0-.417-.333h-4.037c-.188 0-.3.147-.248.328l1.8 6.338c.052.18.055.477.01.66l-.8 3.067a.25.25 0 0 0 .257.331h4c.188 0 .38-.15.426-.33l.8-3.067a2.04 2.04 0 0 1 .29-.604l10.196-13.532c.113-.15.052-.272-.136-.27l-1.07.007zm-32.076 7.938c-.024.2-.212.35-.4.35h-5.12c-.177 0-.267-.12-.24-.27l.004-.027.023-.087c.5-1.3 1.485-2.153 3.356-2.153 2.107 0 2.518 1.03 2.375 2.187zm-1.5-5.908c-6.57 0-8.127 3.988-9 8.013-.874 4.103-.798 7.94 6 7.94h1.078l.83-.003 4.326-.026a.44.44 0 0 0 .407-.335l.657-3.212c.038-.184-.085-.334-.273-.334H81.6c-2.43 0-3.153-.646-2.887-2.545h9.77c.16-.003.305-.1.362-.252.01-.027.02-.056.024-.085 1.45-5.47 1.034-9.157-5.18-9.157zM52.63 26.187l-.092.327c0 .001-.738 2.616-.738 2.616l-.738 2.614a.48.48 0 0 1-.434.328h-3.905c-2.962 0-3.683-2.317-2.962-5.734.72-3.495 2.135-5.668 5.05-5.888 3.984-.3 4.78 2.502 3.82 5.736zm2.678 5.685s1.84-4.47 2.26-7.053c.57-3.457-1.16-8.47-7.845-8.47-6.647 0-9.533 4.786-10.634 10-1.1 5.24.342 9.836 6.95 9.8l10.086-.037a.47.47 0 0 0 .427-.332l.85-3.238a.25.25 0 0 0-.255-.332H55.52c-.16-.001-.25-.104-.232-.24.003-.025.01-.05.02-.076z">
            </path>
            <path d="M88.21 28.88c0 .124-.1.224-.224.224s-.224-.1-.224-.224.1-.224.224-.224.224.1.224.224z"></path>
        </g>
        <path
            d="M4.557 23.067c-1.835 2.638-1.607 6.07-.205 8.872l.103.2.066.126.04.073.073.13.134.23.076.126.155.243.066.102.225.325.044.06.205.273.077.098.2.233.072.087.264.302.016.017.268.283.086.087.214.2.088.083.293.267.056.047.267.225.1.088.222.174.12.1.25.18.116.082.242.16.105.07.38.232.105.06.285.16.158.08.204.106.047.023.083.04.323.15.068.03.377.156.092.036.355.132.045.016.396.13.096.028.4.116c8.875 1.62 11.453-5.334 11.453-5.334-2.165 2.82-6 3.565-9.65 2.737-.138-.03-.272-.074-.406-.114l-.1-.03a12.68 12.68 0 0 1-.39-.127l-.054-.02c-.116-.04-.23-.084-.345-.128l-.097-.038a11.08 11.08 0 0 1-.373-.155l-.074-.033-.314-.146-.1-.044c-.082-.04-.162-.082-.243-.124l-.162-.085a9.39 9.39 0 0 1-.291-.163l-.098-.055a14.83 14.83 0 0 1-.38-.232c-.035-.022-.068-.046-.102-.068l-.27-.18c-.03-.02-.058-.04-.087-.06l-.255-.185-.113-.085-.23-.18-.103-.082-.287-.242c-.01-.01-.02-.017-.03-.026-.102-.1-.202-.182-.302-.274l-.085-.082-.217-.212-.085-.085a11.4 11.4 0 0 1-.266-.281 12.7 12.7 0 0 1-.283-.32l-.07-.084-.194-.24-.07-.1-.224-.298C5.1 28.178 4.373 24.374 6 21.25m4.263-.405c-1.327 1.9-1.255 4.467-.22 6.486a8.45 8.45 0 0 0 .587.98c.2.285.42.624.683.853l.298.3.078.077.304.283.015.013.355.294.08.063.372.27.26.173.275.17.04.023.244.136.087.045.17.088.026.012.355.166.078.032.3.118.125.046.267.093.12.04c.128.04.254.1.387.112 6.853 1.135 8.435-4.14 8.435-4.14-1.426 2.054-4.188 3.034-7.135 2.27l-.388-.112-.117-.038-.27-.094-.123-.046-.292-.118-.08-.033-.357-.166-.18-.1-.103-.053-.28-.16-.275-.168-.26-.173-.37-.27-.083-.066c-1.3-1.018-2.313-2.4-2.8-3.988-.5-1.637-.4-3.474.483-4.965m3.69-.113c-.782 1.15-.86 2.58-.316 3.853.572 1.35 1.746 2.4 3.115 2.9l.17.06.075.024.244.07c3.784.73 4.8-1.942 5.083-2.335-.9 1.294-2.4 1.605-4.264 1.155a5.98 5.98 0 0 1-.45-.138 5.48 5.48 0 0 1-.533-.221 5.51 5.51 0 0 1-.934-.57c-1.66-1.26-2.7-3.66-1.607-5.615"
            fill="#0868ac"></path>
    </symbol>
    <symbol xmlns="http://www.w3.org/2000/svg" id="gsap" viewBox="-2.138 -2.29 314.9 359.304">
        <path
            d="m48.173 155.568c-10.389 4.887-37.886 26.886-43.182 33.404-5.5 6.518-7.129-3.666-1.426-20.572 4.48-13.647 15.888-32.183 35.034-48.07 11.202-9.166 35.849-22.405 50.921-30.146 3.056-1.63 42.571-18.332 77.809-26.683 3.056-.815-3.666 5.092-4.685 8.351-5.296 15.48-111.01 81.882-111.01 81.882zm148.894 186.78c1.833 10.999.204 11.814-11.202 13.24-11.407 1.426-19.758-2.852-22.813-5.703-3.056-2.853-3.666-9.166-.611-14.869 1.834-3.667 3.667-4.889 4.686-9.37 1.018-4.277 1.833-5.296 2.647-6.925.814-1.427 1.019-2.853 1.222-12.833.204-9.98 0-28.72 1.019-36.663 1.019-8.147 36.257 3.666 36.257 3.666s-8.352 20.776-10.592 25.868c-2.241 5.093-2.037 14.869-2.037 16.906s-.814 6.11-1.426 6.314c-.611.203 2.037 5.499.814 8.555-.815 2.852 1.833 10.185 2.036 11.814zm13.444-311.437c-1.223-7.74 0-23.018 1.629-25.461 5.093-6.926 31.979-7.74 37.683.407 2.444 3.666 2.24 12.221 1.833 17.721-.407 5.499-1.833 17.313-2.037 21.184-.203 2.852-29.738 7.332-36.256-.408-1.834-2.036-2.852-13.443-2.852-13.443zm59.884 291.679c12.425 8.963 21.998 10.592 28.312 13.851 6.314 3.26 4.685 9.574-5.907 11.407-8.555 1.629-21.998-1.63-30.96-1.63s-28.924 1.019-34.22-2.647c-6.11-4.277-3.463-12.222-3.463-12.222 1.63-4.48 5.703-14.462 4.481-22.609s-2.852-12.628-5.907-20.165c-3.055-7.536-5.295-26.071-2.443-27.09s2.036 0 5.703.814c3.666.814 7.74 2.037 15.684 2.037s16.702-1.223 19.758-1.833c3.055-.611 5.499-1.223 4.48 5.092-1.018 6.314-4.073 18.128-4.277 27.294-.203 9.166-.203 19.758.408 21.591.61 1.833 5.092 3.87 8.351 6.11z"
            fill="#010101"></path>
        <path
            d="m226.806 51.28c-22.405 19.351-65.791 24.646-130.155 49.496-16.499 6.314-60.495 25.257-71.087 45.015 35.645-20.572 48.885 7.74 51.736 36.867 2.647 27.294 16.295 41.553 51.329 40.737 36.053-.814 47.052 20.165 57.032 44.812 19.35-94.308 50.311-112.639 70.271-128.73 42.368-34.424-9.776-95.123-29.126-88.197z"
            fill="#8ac640"></path>
        <path
            d="m226.806 51.28c-53.773 18.739-106.936 23.424-169.467 61.921-14.869 9.166-46.237 29.941-52.348 69.661 22.812-25.258 75.567-57.032 140.136-77.197 32.59-10.185 56.422-16.906 85.345-28.109-2.036-13.037-2.036-18.129-3.666-26.276z"
            fill="#8ac640"></path>
        <path
            d="m295.448 162.9s-3.87 13.24-11.61 17.518c0 0-5.703 2.037-17.109-4.277-3.259-1.833-5.703-8.147-5.5-10.185.204-4.889 3.259-7.129 3.259-7.129s3.26-5.5 7.129-5.296c3.871.203 10.389.814 12.426-1.019 1.832-2.037 11.813 3.666 11.405 10.388zm-83.104-128.119s-.814 10.389-2.24 16.906c-.204 1.223-6.314 1.833-10.796 3.667 8.555 24.442 60.088 24.238 66.81 12.221-3.259-2.24-9.777-5.703-12.832-6.925-3.056-1.223-2.852-1.019-3.056-6.722-.203-5.704-.611-16.295-1.019-19.147-.407-2.852-31.979-2.852-36.867 0z"
            fill="#010101"></path>
        <path
            d="m214.381 34.781s0 5.907-.611 11.61c-.203 2.648-.407 4.277-.814 6.314-.204 1.223 6.925 6.11 8.962 16.906 9.777 21.794 32.387 10.999 41.756.611-3.259-2.241-8.555-5.296-14.665-7.74-3.056-1.223-1.63-3.87-1.833-9.573-.204-5.703-1.019-14.055-1.426-17.11-.409-3.055-26.48-3.87-31.369-1.018z"
            fill="#f0efef"></path>
        <g fill="#010101">
            <path
                d="m212.344 34.781s-.204 3.667-.814 7.944c2.647 2.647 6.11 6.314 8.759 8.555 1.833 1.63 6.313 1.426 10.388 1.426 3.666 0 6.925.407 8.351-.407 3.26-1.63 7.944-5.703 10.592-8.759-.203-3.666-.407-7.129-.61-8.759-.206-2.852-31.778-2.852-36.666 0z">
            </path>
            <path
                d="m230.88 50.261c-2.445 0-5.297-.203-7.537-.611-1.019-.203-2.037-.814-2.852-1.222-1.426-1.019-2.852-2.24-4.48-3.463-3.26-2.444-3.463-3.87-3.463-4.48 1.426-12.833-.408-23.628-.408-23.628s-1.426-5.5 6.314-6.926 12.425-1.629 12.425-1.629 4.889 0 12.425 1.629c7.74 1.426 6.314 6.926 6.314 6.926s-1.833 10.795-.407 23.628c0 .61-.203 2.036-3.463 4.48-2.852 2.037-5.092 4.277-7.332 4.685-2.241.408-5.093.611-7.536.611z">
            </path>
            <path
                d="m230.88 3.006c-13.443 0-16.092 3.666-19.962 7.74-.814 1.018-.204 7.129 1.223 20.165h1.833s-1.223-3.667-1.019-7.944 1.019-4.073.407-5.092c-.814-1.223-2.444-3.26 1.223-5.296 3.666-2.037 9.369 1.629 16.295 1.833 6.925-.204 12.832-3.87 16.498-1.833 3.666 2.036 2.037 4.073 1.223 5.296-.815 1.222.203.814.407 5.092.203 4.277-1.019 7.944-1.019 7.944h1.833c1.222-13.036 2.037-18.739 1.426-19.758-3.463-4.481-6.925-7.944-20.368-8.147zm64.568 160.505s-3.87 12.425-11.406 16.702c-1.63-.814-1.426-2.036-2.852-3.87-.408-.61-1.834-1.019-2.444-1.629-.611-.611-.407-1.63-1.426-2.444-.815-.815-1.426-.204-2.241-.815-.814-.814-1.019-1.833-1.629-2.443-.408-.408-2.037-.611-2.444-1.019-1.019-1.019-9.98-2.852-9.573-4.889.814-3.056 2.444-5.296 2.444-5.296s3.87-5.703 7.739-5.5c3.87.204 7.537 1.019 9.574-.814 2.241-2.038 14.87 5.499 14.258 12.017z">
            </path>
            <path
                d="m268.969 73.482s12.832-3.056 21.591 5.296c8.759 8.555 8.147 19.146 5.5 25.664 2.24 2.648 6.314 9.98 3.259 18.739 13.443 11.406 7.536 28.924-4.481 40.534 0 0-2.852-10.592-14.258-11.203.407-4.073-10.592-7.333-5.5-17.925-7.74-1.833-7.536-7.129-8.758-13.646-1.019-6.519 2.647-47.459 2.647-47.459z">
            </path>
        </g>
        <path
            d="m264.284 79.185s14.869-7.536 23.628 1.019c8.758 8.555 6.313 17.924 3.666 24.442 2.24 2.647 7.536 10.185 4.277 19.146-.611 2.037-5.092 2.037-8.352 7.333 8.147-4.686 13.24-3.463 15.073 2.443 2.852 9.166-3.463 20.165-8.962 26.276 0-.204-.204-.408-.204-.611-.814 3.056-1.833 8.962-7.943 15.48-3.056 3.259-5.5 2.852-8.963 2.037-4.073-1.019-5.499-2.853-11.202-5.907-3.259-1.833-1.426-4.074-1.426-5.907 0-.407.407-1.019 1.019-1.833.407-1.019 1.629-2.647 3.462-4.481 0 0 2.648-3.666 6.519-3.463 3.87.204 7.943-.61 8.962-1.629 0-7.129-8.147-7.333-5.296-19.554.204-.611 1.223-1.63 4.481-2.037-4.889-1.019-7.129-1.223-10.592-4.481-2.444-2.24-4.277-5.092-4.889-8.758-1.221-6.314-3.258-39.515-3.258-39.515z"
            fill="#f0efef"></path>
        <path
            d="m221.306 66.353c-1.222-1.63-7.536-9.777-19.554-13.036-3.463-1.019-5.703 1.833-9.165 3.87-1.019-.611-5.5-2.648-7.944-1.223s-4.073 2.852-6.518 3.87c-1.223-.611-4.481-.611-7.129.407-2.648.815-6.722 2.648-10.592 7.944-2.444 8.759 43.181 2.24 43.181 2.24z"
            fill="#010101"></path>
        <path
            d="m221.714 66.353c-6.519-2.241-5.5-9.777-19.962-10.999-2.852-.204-4.685 2.036-6.722 3.462 1.019 1.019 2.037 2.648 2.648 4.277-1.833-2.036-5.092-4.685-8.352-5.296-3.055-.61-5.092 1.63-8.351 3.26.61.61 1.222 1.629 2.036 2.852-2.852-1.833-4.888-2.444-8.758-1.019-2.648.814-7.74 3.055-11.61 8.555-2.444 8.759 41.145-1.019 41.145-1.019z"
            fill="#8ac640"></path>
        <path
            d="m260.007 69.612s0-2.241-.204-4.277c0-.407-1.629-1.426-1.629-1.833l-.407-.408s3.259-1.833 5.703-.814c2.647.814 4.073 4.277 4.073 4.277 4.685-1.629 5.092.204 7.333 2.648 4.889-1.019 5.499.814 8.555 5.296 0 0-3.666-.611-10.795.61-6.926 1.018-12.629-5.703-12.629-5.499z"
            fill="#010101"></path>
        <path
            d="m259.192 68.593s1.222-1.019.814-1.223c2.24-1.222 5.296-2.647 6.722 1.223 4.685-1.63 5.296.611 7.536 3.056 5.703-2.648 6.11.61 6.518 2.036-1.833 0-4.48.204-8.147.611-6.925 1.019-13.647-5.907-13.443-5.703z"
            fill="#8ac640"></path>
        <path
            d="m189.939 63.501s11.61 4.073 21.387 3.462c9.777-.814 26.479-1.629 35.441 3.667 0 0 9.166-3.26 17.721-1.019 8.556 2.24 24.239 16.906 19.555 32.386-.408 1.019-3.056 2.648-6.111 3.667 0 0 1.63 6.925-1.222 12.628-2.852 5.5-9.166 16.092-9.37 30.757-.203 2.444-.61 7.536-1.018 9.98-15.888-.61-40.33-6.518-64.365-6.11.203-2.647.407-4.277.611-6.925h.61c-1.222-6.722-1.629-10.185-2.852-15.277-7.74-4.888-15.888-10.591-22.812-21.387-6.722-10.796 12.425-45.829 12.425-45.829zm78.623 109.991s12.629 45.219-2.24 64.162c0 0 2.24 8.758-2.852 18.128-.815 4.073-1.834 7.74-2.444 11.813-2.648 16.906-7.13 24.035-8.352 51.125l-12.222-.203s-1.426-19.554-5.703-29.942c-2.443-5.906-12.018-13.851-11.609-21.794.407-6.111 1.629-11.203 12.018-19.351.814-11.813-11-23.017-9.166-67.013z"
            fill="#010101"></path>
        <path
            d="m264.896 171.658c3.259 20.776 10.795 51.533-2.852 66.605a30.712 30.712 0 0 1 .203 11.61c-.407 2.444-1.222 5.092-2.24 7.943-2.037 4.889-2.852 12.018-3.463 16.295-2.648 16.906-2.648 17.722-3.87 44.812l-12.222-.204s-1.426-19.554-5.703-29.941c-2.443-5.907-7.536-10.999-7.943-18.943-.407-6.11 3.87-18.331 14.055-17.924-.611-24.646-12.018-19.758-15.073-71.087zm-74.957-108.157s4.481 1.426 9.369 1.833c4.889.407 10.185 0 14.869-.204 9.777-.814 23.628-1.833 32.794 3.463 0 0 5.092-1.63 10.592-1.223 2.444.204 4.889 2.241 7.74 3.056 8.962 2.24 17.517 17.109 13.646 30.553-.407 1.019-3.259 0-6.518 1.019.61 2.852 1.019 9.37-2.241 16.295-3.462 6.926-7.943 15.888-7.129 32.998-21.387-1.019-30.96-2.444-52.144-3.463-1.833-7.537-3.056-15.073-3.259-18.943 2.852-1.426 4.48-2.647 6.722-5.092-6.11 1.019-8.555.611-12.222-1.426-3.666-2.037-10.184-8.555-13.443-12.832-.407-.408-2.647 6.313-7.739 6.518-1.834-2.648 5.906-10.185 4.48-13.036-5.091-10.389 4.483-39.516 4.483-39.516z"
            fill="#f0efef"></path>
        <path
            d="m266.524 154.752s.407 7.333.407 9.166c0 2.037 1.63 8.147 1.833 10.999-2.24 3.87-12.017 12.629-29.738 15.888-17.517 3.666-40.737-23.831-40.737-23.831.611-2.648 2.648-10.389 4.074-14.462.204-.407.611-1.426.611-1.833 1.834-2.648 63.55 4.073 63.55 4.073z"
            fill="#010101"></path>
        <path
            d="m262.044 155.364c0 5.092.814 8.759 1.426 12.018 1.018 5.907 2.647 9.777 2.647 13.647 0 11.813-15.48 9.776-28.517 10.184-17.517 3.667-32.386-23.831-32.386-23.831 1.222-4.685 2.037-9.98 3.87-14.462.203-2.444.611-5.499.814-6.925 24.85 0 42.367 1.426 52.552 2.443.408 2.241.001 6.111-.406 6.926z"
            fill="#f0efef"></path>
        <path
            d="m242.489 181.639s-10.795-24.035-43.182-16.905c-7.739 21.794-18.128 46.848-11.406 73.938-6.722 9.166-14.462 14.259-14.462 31.164 0 16.906.815 19.758.815 19.758l23.831 1.223s7.74-9.98 10.795-20.776c.815-3.056 1.63-8.555 1.019-14.869.814-1.222 4.277-4.073 4.685-9.573 0 0 11.61-6.11 18.332-20.979 6.315-13.446 4.685-25.056 9.573-42.981z"
            fill="#010101"></path>
        <path
            d="m242.489 181.639c-.61-2.24-8.758-24.238-38.904-17.721-17.72 47.256-11.202 66.81-8.555 75.364-12.018 15.276-17.517 18.535-15.072 49.496h15.888c7.332-11.61 8.962-15.888 9.369-31.164 0-.611-2.24 1.222-3.87 3.259 1.223-6.314 4.685-7.536 7.333-11.406 1.222-1.63 2.24-4.074 2.24-7.333 14.258-9.573 19.554-21.591 22.609-34.016 2.445-8.554 5.296-22.609 8.962-26.479z"
            fill="#f0efef"></path>
        <g fill="#010101">
            <path
                d="m192.179 148.846s5.5.203 10.389 1.833c4.685 1.629 4.685 2.647 6.518 4.685s6.314 5.092 5.5 8.147c-.408 1.63-1.426 2.037-2.852 3.463-.611.611-5.093 5.499-6.111 6.11-.611.407-1.426 1.019-2.037 1.426l-3.055 2.037c-2.037 1.019-3.463 1.63-5.703 1.426 0 0-5.092-.204-8.352-3.666 0 0-.407-1.63.408-2.444 0 0-4.278-3.667-5.5-6.111-1.223-2.443-1.223-5.906-.407-7.739.407-1.835 8.35-6.927 11.202-9.167zm5.093 198.187-.611 5.093s-1.833 2.24-15.48 2.037c-13.851-.204-17.517-4.481-18.739-6.722l-.814-5.296s2.648-3.87 3.259-3.87c4.481.407 19.758 6.518 30.35 8.147 1.016 0 1.219.407 2.035.611zm29.534-10.388c0 2.24-.204 2.24-.204 4.481 2.444 1.833 8.556 2.852 20.165 2.647 16.906-.407 32.59 5.093 51.736 1.833l.204-3.666-1.833-.203-67.828-5.5z">
            </path>
            <path
                d="m241.675 343.774h5.092c11-.407 21.388 2.037 32.59 2.648 5.907-.204 13.24-1.63 12.629-5.907l-57.847-4.889c-3.463 3.87-.816 7.129 7.536 8.148zm-66.402-85.752c1.833 1.222 14.258 8.555 34.423 7.536-.408 3.87-.204 11.407-9.166 24.646-4.481 6.518-8.352 17.925-9.166 32.387.204 3.259 2.037 6.11-.407 10.388.814 2.647 4.073 7.943 5.703 11.202 1.629 3.26 2.444 6.926-8.352 7.13-10.999.203-28.72-1.019-26.275-9.573 1.223-4.481 4.685-9.166 5.093-11 .407-1.833.407-7.332 3.869-10.999 3.056-10.184 2.037-19.961 1.427-29.127-1.019-9.574-1.223-24.85 2.851-32.59zm18.943-166.005c14.462-19.351 2.24-34.83-20.979-30.146-9.37 1.833-18.739 8.352-19.351 20.165-3.055.407-9.98.814-13.443 13.443-2.647 9.777-4.073 11.61-8.759 16.498-3.055 3.463.204 10.592 2.444 15.685 7.537 17.517 30.757 19.146 46.441 32.386 5.296-1.426 10.795-7.332 12.425-11.202-13.24-15.685-10.389-21.795-15.685-29.942 5.704-2.038 18.74-9.981 16.907-26.887z">
            </path>
        </g>
        <path
            d="m191.364 90.795c.814-1.223 2.24-3.87 2.852-4.889.204-.204 2.444 3.666 2.648 3.463 5.499-8.963 6.925-21.999.61-23.221-1.426-.204-4.073-.814-6.314-1.63-4.073-1.426-7.739-1.426-14.258-.203-8.962 1.629-17.924 8.147-17.924 17.517 0 .611 6.313 2.444 8.147 9.981-3.056-4.278-8.352-8.963-14.666-4.889-6.722 4.277-3.259 14.054-12.221 24.238-3.056 3.463-2.648 7.537.61 15.684 5.296 12.833 30.35 19.758 43.997 31.979 3.259-1.426 5.499-4.685 7.129-7.129-9.166-9.573-12.833-18.536-15.48-25.054-3.259-7.536-6.926-11.813-14.055-17.518 3.667 1.426 6.519 2.852 8.147 4.074 1.833 1.222 4.481 1.426 6.926.611 8.76-3.053 13.445-15.275 13.852-23.014z"
            fill="#f0efef"></path>
        <path
            d="m279.968 94.054c-.611 7.74-6.314 3.87-9.369 2.444-6.111-2.648-12.222-4.481-19.351-4.481s-16.295.611-24.238 2.648c-10.999 3.055-14.259 2.852-19.147.407-4.888-2.648-13.442-9.166-13.442-9.166s-.204 2.037 1.833 4.685c2.647 3.259 8.555 7.333 16.498 9.98 3.87 1.223 6.926.407 10.389-.407 18.128-4.481 37.274-5.296 53.365 4.481.815.407 3.667-.815 4.889-2.648 1.628-2.647-1.427-7.943-1.427-7.943z"
            fill="#010101"></path>
        <path
            d="m187.291 171.658c1.629 1.019 3.666 1.63 5.906 3.463 0 0-1.833 0-2.647-.814-1.019-.611-3.056-2.444-3.259-2.649z"
            fill="#0a1825"></path>
        <path
            d="m246.156 10.135c-.611-1.833-5.093-5.093-15.48-5.093-11.203 0-14.462 3.463-14.665 5.296 0 .611-.815 7.13-1.019 9.777 0 0 0 3.259.203 8.147.204 3.259 1.019 5.092 1.426 9.37.407 4.48 1.63 7.332 3.87 10.999 1.019.61 1.833 1.222 2.852 1.426 4.074.814 11.203 1.018 15.073 0 2.24-.611 5.092-4.481 5.703-7.944.814-4.277 1.629-7.333 1.833-9.98.407-2.647.611-8.555.814-10.185.612-4.48-.407-11.406-.61-11.813z"
            fill="#f0efef"></path>
        <path
            d="m224.769 261.892s10.796 4.685 37.479.611c0 0-7.536 37.886-4.073 56.828 0 0 3.462 4.889 29.127 14.258 0 0 11.406 2.852 10.999 8.556 0 0 .407 1.222-13.443.814s-26.887-2.852-36.053-2.852-18.943.407-20.572-2.24c-1.833-2.444.407-8.759 3.055-12.426 2.853-3.869 2.037-6.722 1.834-13.646-.613-18.128-14.464-36.867-8.353-49.903z"
            fill="#010101"></path>
        <path
            d="m222.528 265.355c-1.426 2.037.203 9.776 2.24 17.313 2.037 7.536 6.519 12.018 7.537 24.442 1.018 12.221 1.222 13.851-2.241 20.979s-4.481 13.647 7.536 13.851 18.536-.204 30.757 1.63c12.222 1.833 16.499 2.444 23.221 1.426s8.147-3.26 5.296-5.296c-2.852-2.037-14.666-4.277-19.758-8.352-4.889-3.666-18.739-9.777-18.942-11.406-.611-5.5-.815-25.461.203-31.979 1.019-6.519 2.444-15.888 2.852-18.332s2.444-4.889-1.019-4.074c-3.462.814-16.498 2.648-26.275 2.037-9.777-.61-10.795-2.851-11.407-2.239z"
            fill="#8ac640"></path>
        <path
            d="m229.454 328.294c3.462 1.629 8.555 2.852 12.425 2.852 0 0-1.427 6.722.814 10.795 2.24 4.074-16.295 1.63-16.295 1.63l-.814-14.462zm53.977 17.517c3.259-1.019 5.5-4.685 2.852-8.147-2.852-3.463-5.296-4.074-1.63-4.277 3.667-.204 17.11 7.943 17.11 7.943l-6.926 6.314zm-61.514-72.513c4.685 1.63 11.814 2.037 17.925 1.833 6.11-.203 15.276-1.019 21.184-3.055 5.906-2.037 3.462 2.24 3.462 2.24l-3.259 3.056s-7.74 3.055-20.368 2.852c-14.869-.204-19.351-1.833-19.351-1.833zm.407 10.185c4.686 1.63 11.814 2.037 17.925 1.833 6.11-.203 14.258-.203 20.165-2.444 2.444-.814 1.019 2.648 1.019 2.648l-1.019 1.833s-7.944 2.852-20.369 2.647c-14.869-.203-17.517-1.426-17.517-1.426z"
            fill="#010101" opacity=".3"></path>
        <path
            d="m224.769 261.892s17.721 6.314 37.683 2.037c0 0-7.74 36.46-4.277 55.199 0 0 3.462 4.888 29.127 14.258 0 0 11.406 2.852 10.999 8.555 0 0 .407 1.223-13.443.814-13.851-.407-26.887-2.852-36.053-2.852s-18.943.408-20.572-2.24c-1.833-2.444.407-8.759 3.055-12.425 2.853-3.87 2.037-6.722 1.834-13.647-.613-17.924-14.464-36.663-8.353-49.699z"
            fill="none"></path>
        <path
            d="m224.769 261.892s17.721 6.11 37.683 1.833c0 0-7.74 36.664-4.277 55.403 0 0 3.462 4.888 29.127 14.258 0 0 11.406 2.852 10.999 8.555 0 0 .407 1.223-13.443.814-13.851-.407-27.091-4.277-36.053-2.852-9.573 1.63-18.943 1.019-20.572-2.24-1.426-2.647.407-8.759 3.055-12.425 2.853-3.87 2.037-6.722 1.834-13.647-.613-17.924-14.464-36.663-8.353-49.699z"
            fill="none"></path>
        <path
            d="m208.881 140.699c0 1.426 15.888 9.369 24.646 10.999 8.759 1.629 27.091 0 29.942-.611l-.408 2.852s-21.794 3.259-38.496-1.222c-16.703-4.481-14.869-5.5-14.869-5.5z"
            fill="#010101"></path>
        <path
            d="m174.865 314.443c2.444 1.223 11.203 3.463 16.906 2.241.814-.204 0-14.055 2.241-20.369 3.259-8.759 8.555-15.888 10.998-31.367-8.555-.815-18.331-3.056-23.424-4.686-6.517 19.962-4.276 37.071-6.721 54.181zm13.648 12.833c1.426.407 2.444 2.036 2.852 1.019.814-1.834-1.426-5.296-1.63-7.74v-.204c-1.833-1.629-14.258-1.833-13.443-1.019-1.426 2.648-3.666 2.241-4.48 7.537-.407 2.647 2.852.407 5.906.203-5.499 3.666-11.813 8.352-12.832 12.425-1.222 5.703.815 7.333 6.926 10.389 5.296 1.222 11.61 1.426 16.498 1.222 5.5-1.019 6.519-3.666 4.889-7.333-2.446-5.5-4.075-12.629-4.686-16.499z"
            fill="#f0efef"></path>
        <path
            d="m190.753 62.686c6.722 3.87 16.092 2.852 19.554 2.648.815 0 8.963-1.426 9.37-1.223.814.204.814.815.814.815s-3.055 1.629-9.98 2.036c-6.518.407-14.258 0-18.535-2.036-5.093-2.24-1.223-2.24-1.223-2.24zm69.254 3.87c1.222.814 9.166 3.87 12.629 7.536 3.055 3.26 1.426 3.056.814 2.241-.814-1.019-7.129-5.296-9.573-6.314s-5.5-2.852-5.5-3.259 1.63-.204 1.63-.204z"
            fill="#010101"></path>
        <path
            d="m189.734 151.086c5.907-.407 12.018 1.019 15.888 5.092 2.037 2.037 5.296 4.277 4.889 6.314 0 .611-1.223 2.241-2.24 3.463-.611.814-2.444 2.647-3.056 3.259-.814.611-3.666 2.852-4.277 3.259-.611.408-1.426 1.427-2.037 1.63-2.036 1.019-4.277.204-6.314-.814-2.036-1.019.408-1.223-1.833-2.852-5.499-3.87-8.555-6.519-6.314-14.055.203-1.426 2.443-3.056 5.294-5.296z"
            fill="#f0efef"></path>
        <path
            d="m137.795 104.442c-18.332 7.333-64.977 30.554-78.216 37.683 10.999 6.925 16.091 23.627 17.721 40.533.203 1.63.407 3.056.611 4.685.203 1.426.407 2.444.61 3.056 0 .204 0 .611.204.814 12.018-32.793 54.995-67.42 56.625-70.068.814-1.222-1.019-6.518 1.833-11.609 3.667-6.52 10.797-9.372.612-5.094zm43.589 153.784c9.369-18.739 9.573-36.664 9.369-57.644 0-8.759 6.314-21.184 3.056-17.721-12.222 13.646-42.978 39.312-65.18 40.737 31.164-1.018 43.385 14.666 52.755 34.628z"
            fill="#010101" opacity=".4"></path>
        <path
            d="m41.654 159.437c11.61-8.351 71.698-40.329 86.16-44.811 14.461-4.685 9.98-10.185 9.98-10.185s-58.662 25.257-93.696 47.052"
            fill="#010101"></path>
        <path
            d="m212.751 100.572c-4.685-1.833-8.351 3.667-7.129 8.963 1.223 5.296 12.222 11.202 11.61 30.553-.407 15.888-3.87 22.405-3.87 22.405l-7.74-9.776s-1.222-21.999-3.87-25.258c-2.647-3.259-10.999-9.166-14.258-12.221-3.259-3.056 3.666-7.129 3.259-12.833-.407-5.499 3.463-16.498 3.463-16.498zm28.313 86.77c-.407 15.276 3.056 37.886 4.481 48.682 1.426 10.795 3.259 11.61 0 16.499-3.259 4.685-7.536 12.425-7.536 12.425l-14.055-1.223s11.203-14.258 11.813-16.906c.611-2.647-5.703-22.812-5.703-22.812zm-27.09-142.58c2.852 6.313 6.314 9.165 11.813 10.999 3.259 1.222 16.091 2.852 21.184-2.852 2.24-2.648.814-9.777.814-9.777l-11.61 9.369-15.684-2.851-1.833-4.685z"
            fill="#010101" opacity=".4"></path>
        <path
            d="m215.195 58.816c5.296 3.463 18.536 6.722 22.202 7.333 3.666.814 9.573-3.87 12.425-5.092 3.056-1.426 8.352-2.241 14.462 3.259.611.611-1.426 3.259-1.426 3.259-.204-.204-1.426-.204-3.056-1.019-1.629-.814-3.055-1.426-5.499-1.222-10.185 1.222-11.814 4.685-20.776 2.647s-11.203-3.666-19.961-3.259"
            fill="#8ac640" stroke="#010101" stroke-linejoin="round" stroke-miterlimit="10" stroke-width="1.586"></path>
        <path
            d="m213.362 59.427c6.722 2.852 19.758 5.907 23.424 6.722s9.573-2.852 12.425-4.685c5.093-3.259 11.61-.611 14.666 2.852 2.036 2.24 2.852 3.666 2.852 4.277 0 .814-2.444 0-2.444 0-1.426-.611-3.056-.814-4.277-1.63-1.63-.814-3.26-2.036-5.703-1.833-10.185 1.223-12.222 4.685-20.98 2.648s-10.999-3.87-20.368-3.26"
            fill="#8ac640"></path>
        <path
            d="m181.791 249.67c-.407-.407.407-.814 0-.814-2.647 0-6.314-2.037-8.352-4.889-8.758-12.628-21.591-20.979-44.811-20.368-34.831.814-48.682-13.443-51.329-40.737-1.426-14.869-5.5-29.331-13.851-37.479l-4.889 3.056c9.369 8.147 12.425 21.387 14.462 39.515 3.259 27.294 25.257 39.923 50.922 40.33 26.683.407 36.256 5.907 46.236 19.351 3.259 4.277 6.926 5.703 9.777 6.314z"
            fill="#010101"></path>
        <path
            d="m276.302 118.7c.611 3.055 2.24 8.962 5.499 11.813 1.427 1.426 1.63 1.833.408 1.833-1.223 0-10.185-.407-10.185-.407l-2.444-4.277z"
            fill="#010101" opacity=".4"></path>
    </symbol>
    <symbol xmlns="http://www.w3.org/2000/svg" id="redux" viewBox="0 -6 256 256">
        <path
            d="M177.381 169.733c9.447-.978 16.614-9.122 16.288-18.896-.325-9.773-8.47-17.592-18.243-17.592h-.651c-10.1.326-17.918 8.796-17.592 18.895.326 4.887 2.28 9.122 5.212 12.054-11.076 21.828-28.016 37.791-53.426 51.148-17.266 9.122-35.183 12.38-53.1 10.1-14.66-1.955-26.062-8.47-33.23-19.222-10.424-15.963-11.401-33.23-2.605-50.496 6.19-12.38 15.962-21.502 22.152-26.063-1.303-4.235-3.258-11.402-4.235-16.614-47.237 34.207-42.35 80.468-28.016 102.295 10.75 16.29 32.577 26.389 56.684 26.389 6.515 0 13.03-.652 19.546-2.28 41.699-8.145 73.299-32.905 91.216-69.718zm57.336-40.397c-24.759-28.995-61.245-44.958-102.944-44.958h-5.212c-2.932-5.864-9.122-9.774-15.963-9.774h-.652C99.848 74.93 92.03 83.4 92.355 93.5c.326 9.773 8.47 17.592 18.243 17.592h.651c7.167-.326 13.357-4.887 15.963-11.077h5.864c24.759 0 48.214 7.167 69.39 21.176 16.288 10.751 28.016 24.76 34.531 41.7 5.538 13.683 5.212 27.04-.652 38.443-9.121 17.266-24.432 26.714-44.63 26.714-13.031 0-25.41-3.91-31.926-6.842-3.583 3.258-10.099 8.47-14.66 11.729 14.009 6.515 28.343 10.099 42.025 10.099 31.274 0 54.404-17.267 63.2-34.533 9.447-18.896 8.795-51.474-15.637-79.165zM69.225 175.27c.326 9.774 8.47 17.592 18.243 17.592h.652c10.099-.325 17.917-8.796 17.591-18.895-.325-9.774-8.47-17.592-18.243-17.592h-.651c-.652 0-1.63 0-2.28.325-13.357-22.153-18.895-46.26-16.94-72.323 1.302-19.547 7.818-36.488 19.22-50.497 9.447-12.054 27.69-17.918 40.07-18.243 34.531-.652 49.19 42.351 50.168 59.618 4.235.977 11.402 3.258 16.289 4.887C189.434 27.366 156.857 0 125.584 0c-29.32 0-56.359 21.176-67.11 52.451-14.985 41.7-5.212 81.771 13.031 113.372-1.628 2.28-2.606 5.864-2.28 9.448z"
            fill="#764ABC"></path>
    </symbol>
    <symbol xmlns="http://www.w3.org/2000/svg" id="Globe" viewBox="0 0 48 48" >
        <g id="Layer_2">
      <g id="layer_1-2">
        <path d="M24,48A24,24,0,1,1,48,24,24,24,0,0,1,24,48ZM24,2A22,22,0,1,0,46,24,22,22,0,0,0,24,2Z"></path>
        <path d="M24,48c-7.85,0-14-10.54-14-24S16.15,0,24,0,38,10.54,38,24,31.85,48,24,48ZM24,2c-6.62,0-12,9.87-12,22s5.38,22,12,22,12-9.87,12-22S30.62,2,24,2Z"></path>
        <rect x="23" y="4" width="2" height="43"></rect>
        <rect x="1" y="23" width="33" height="2"></rect>
        <rect x="37" y="23" width="10" height="2"></rect>
        <rect x="7" y="12" width="37" height="2"></rect>
        <rect x="4" y="34" width="8" height="2"></rect>
        <rect x="16" y="34" width="28" height="2"></rect>
      </g>
        </g>
    </symbol>
    <symbol xmlns="http://www.w3.org/2000/svg" id="nextjs" viewBox="0 0 256 256" >
        <g>
            <path d="M119.616813,0.0688905149 C119.066276,0.118932037 117.314565,0.294077364 115.738025,0.419181169 C79.3775171,3.69690087 45.3192571,23.3131775 23.7481916,53.4631946 C11.7364614,70.2271045 4.05395894,89.2428829 1.15112414,109.384595 C0.12512219,116.415429 0,118.492153 0,128.025062 C0,137.557972 0.12512219,139.634696 1.15112414,146.665529 C8.10791789,194.730411 42.3163245,235.11392 88.7116325,250.076335 C97.0197458,252.753556 105.778299,254.580072 115.738025,255.680985 C119.616813,256.106338 136.383187,256.106338 140.261975,255.680985 C157.453763,253.779407 172.017986,249.525878 186.382014,242.194795 C188.584164,241.068861 189.00958,240.768612 188.709286,240.518404 C188.509091,240.36828 179.124927,227.782837 167.86393,212.570214 L147.393939,184.922273 L121.743891,146.965779 C107.630108,126.098464 96.0187683,109.034305 95.9186706,109.034305 C95.8185728,109.009284 95.7184751,125.873277 95.6684262,146.465363 C95.5933529,182.52028 95.5683284,183.971484 95.1178886,184.82219 C94.4672532,186.048207 93.9667644,186.548623 92.915738,187.099079 C92.114956,187.499411 91.4142717,187.574474 87.6355816,187.574474 L83.3063539,187.574474 L82.1552297,186.848872 C81.4044966,186.373477 80.8539589,185.747958 80.4785924,185.022356 L79.9530792,183.896422 L80.0031281,133.729796 L80.0782014,83.5381493 L80.8539589,82.5623397 C81.25435,82.0369037 82.1051808,81.3613431 82.7057674,81.0360732 C83.7317693,80.535658 84.1321603,80.4856165 88.4613881,80.4856165 C93.5663734,80.4856165 94.4172043,80.6857826 95.7434995,82.1369867 C96.1188661,82.5373189 110.007429,103.454675 126.623656,128.650581 C143.239883,153.846488 165.962072,188.250034 177.122972,205.139048 L197.392766,235.839522 L198.418768,235.163961 C207.502639,229.259062 217.112023,220.852086 224.719453,212.09482 C240.910264,193.504394 251.345455,170.835585 254.848876,146.665529 C255.874878,139.634696 256,137.557972 256,128.025062 C256,118.492153 255.874878,116.415429 254.848876,109.384595 C247.892082,61.3197135 213.683675,20.9362052 167.288368,5.97379012 C159.105376,3.32158945 150.396872,1.49507389 140.637341,0.394160408 C138.234995,0.143952798 121.693842,-0.131275573 119.616813,0.0688905149 L119.616813,0.0688905149 Z M172.017986,77.4831252 C173.219159,78.0836234 174.195112,79.2345784 174.545455,80.435575 C174.74565,81.0861148 174.795699,94.9976579 174.74565,126.348671 L174.670577,171.336 L166.73783,159.17591 L158.780059,147.01582 L158.780059,114.313685 C158.780059,93.1711423 158.880156,81.2862808 159.030303,80.7108033 C159.430694,79.3096407 160.306549,78.2087272 161.507722,77.5581875 C162.533724,77.0327515 162.909091,76.98271 166.837928,76.98271 C170.541544,76.98271 171.19218,77.0327515 172.017986,77.4831252 Z" ></path>
        </g>
    </symbol>
    <symbol xmlns="http://www.w3.org/2000/svg" id="ts" viewBox="0 0 32 32" >
        <path d="M23.827,8.243A4.424,4.424,0,0,1,26.05,9.524a5.853,5.853,0,0,1,.852,1.143c.011.045-1.534,1.083-2.471,1.662-.034.023-.169-.124-.322-.35a2.014,2.014,0,0,0-1.67-1c-1.077-.074-1.771.49-1.766,1.433a1.3,1.3,0,0,0,.153.666c.237.49.677.784,2.059,1.383,2.544,1.095,3.636,1.817,4.31,2.843a5.158,5.158,0,0,1,.416,4.333,4.764,4.764,0,0,1-3.932,2.815,10.9,10.9,0,0,1-2.708-.028,6.531,6.531,0,0,1-3.616-1.884,6.278,6.278,0,0,1-.926-1.371,2.655,2.655,0,0,1,.327-.208c.158-.09.756-.434,1.32-.761L19.1,19.6l.214.312a4.771,4.771,0,0,0,1.35,1.292,3.3,3.3,0,0,0,3.458-.175,1.545,1.545,0,0,0,.2-1.974c-.276-.395-.84-.727-2.443-1.422a8.8,8.8,0,0,1-3.349-2.055,4.687,4.687,0,0,1-.976-1.777,7.116,7.116,0,0,1-.062-2.268,4.332,4.332,0,0,1,3.644-3.374A9,9,0,0,1,23.827,8.243ZM15.484,9.726l.011,1.454h-4.63V24.328H7.6V11.183H2.97V9.755A13.986,13.986,0,0,1,3.01,8.289c.017-.023,2.832-.034,6.245-.028l6.211.017Z"></path>
    </symbol>
</svg>


